<?xml version="1.0" encoding="UTF-8"?>
<svg version="1.1" xmlns="http://www.w3.org/2000/svg" width="1563" height="1563">
<path d="M0 0 C177.87 0 355.74 0 539 0 C534.29329546 7.39625 529.53437285 14.64993764 524.5 21.8125 C519.11712958 29.50875286 513.77645847 37.23040088 508.5 45 C503.38088241 52.53370664 498.21173778 60.03007367 493 67.5 C485.81365115 77.80127775 478.72931183 88.16947026 471.66503906 98.5546875 C464.92336653 108.45565409 458.09908535 118.29812248 451.25 128.125 C444.59278396 137.67823946 438.01338467 147.2822005 431.46484375 156.91015625 C427.09659201 163.33236212 422.69447286 169.73103546 418.28857422 176.12744141 C417.00426266 177.9938055 415.72244649 179.86185805 414.44140625 181.73046875 C409.07709343 189.55174943 403.67368889 197.344767 398.25 205.125 C390.98301847 215.55304076 383.81373301 226.04536233 376.66503906 236.5546875 C369.92336653 246.45565409 363.09908535 256.29812248 356.25 266.125 C348.98312333 276.55311478 341.81373392 287.045361 334.66503906 297.5546875 C327.92336653 307.45565409 321.09908535 317.29812248 314.25 327.125 C306.98312333 337.55311478 299.81373392 348.045361 292.66503906 358.5546875 C285.92336653 368.45565409 279.09908535 378.29812248 272.25 388.125 C265.59278396 397.67823946 259.01338467 407.2822005 252.46484375 416.91015625 C248.09659201 423.33236212 243.69447286 429.73103546 239.28857422 436.12744141 C238.00426266 437.9938055 236.72244649 439.86185805 235.44140625 441.73046875 C230.07709343 449.55174943 224.67368889 457.344767 219.25 465.125 C211.98301847 475.55304076 204.81373301 486.04536233 197.66503906 496.5546875 C190.92336653 506.45565409 184.09908535 516.29812248 177.25 526.125 C169.98312333 536.55311478 162.81373392 547.045361 155.66503906 557.5546875 C148.25190646 568.4417749 140.73495102 579.25551528 133.20361328 590.06103516 C127.7971912 597.82900087 122.45047406 605.63633741 117.13574219 613.46728516 C114.21431844 617.76877302 111.2724551 622.05365762 108.28735352 626.3112793 C107.66836685 627.19446335 107.04938019 628.0776474 106.41163635 628.9875946 C105.94579636 629.65168839 105.47995636 630.31578217 105 631 C105.8812752 631.03347579 106.7625504 631.06695159 107.67053092 631.1014418 C159.92027458 633.08624057 212.16992529 635.07347058 264.41945664 637.063851 C270.69532719 637.30292032 276.97119851 637.54196936 283.24707031 637.78100586 C284.49646556 637.82859339 285.7458608 637.87618091 287.0331165 637.92521048 C307.25413737 638.69534937 327.47522034 639.46384587 347.69632681 640.23173373 C368.45026798 641.01989244 389.20414129 641.80982 409.95795286 642.60138422 C422.76063159 643.08963126 435.56336106 643.57650413 448.36615919 644.06161059 C457.14954161 644.39455119 465.93285743 644.72921238 474.71612324 645.06521528 C479.78098017 645.25892032 484.84586262 645.45187751 489.91082573 645.64278793 C494.55496463 645.81785333 499.19901529 645.99509669 503.84300725 646.1740163 C505.51616185 646.23810315 507.18934636 646.30141525 508.8625638 646.36383962 C518.593772 646.72739368 528.29062184 647.23262233 538 648 C536.37875612 652.40612621 534.1734328 655.28713505 530.9375 658.625 C526.5340247 663.29393558 522.40065276 668.09451102 518.37109375 673.09375 C515.67366954 676.3999833 512.90865061 679.64137242 510.125 682.875 C506.23023401 687.40030019 502.35040028 691.93687198 498.5 696.5 C494.64959801 701.06313006 490.76956071 705.59952169 486.875 710.125 C483.38180518 714.1862481 479.93551449 718.27518779 476.5625 722.4375 C472.41939009 727.54307465 468.1176955 732.49800053 463.79711914 737.45288086 C460.63534162 741.08737851 457.53149794 744.75520843 454.5 748.5 C450.42242873 753.53348541 446.19494085 758.42333309 441.94189453 763.30810547 C437.0212235 768.96264879 432.17218901 774.67472086 427.34277344 780.40722656 C425.06578569 783.10814802 422.7825781 785.80380307 420.5 788.5 C417.76018685 791.73698995 415.02104448 794.97453536 412.28515625 798.21484375 C407.50591674 803.87270826 402.7055149 809.51082743 397.875 815.125 C394.38184894 819.18628745 390.93551604 823.27518587 387.5625 827.4375 C383.41939009 832.54307465 379.1176955 837.49800053 374.79711914 842.45288086 C371.63534162 846.08737851 368.53149794 849.75520843 365.5 853.5 C361.42242873 858.53348541 357.19494085 863.42333309 352.94189453 868.30810547 C348.01987908 873.96419371 343.16927867 879.67768348 338.33837891 885.41162109 C336.08232573 888.08908953 333.82293394 890.76372957 331.5625 893.4375 C331.11261719 893.96988281 330.66273438 894.50226562 330.19921875 895.05078125 C326.77850105 899.09344762 323.32894463 903.11071961 319.875 907.125 C316.38184894 911.18628745 312.93551604 915.27518587 309.5625 919.4375 C305.41939009 924.54307465 301.1176955 929.49800053 296.79711914 934.45288086 C293.63534162 938.08737851 290.53149794 941.75520843 287.5 945.5 C283.42242873 950.53348541 279.19494085 955.42333309 274.94189453 960.30810547 C270.01987908 965.96419371 265.16927867 971.67768348 260.33837891 977.41162109 C258.08232573 980.08908953 255.82293394 982.76372957 253.5625 985.4375 C253.11261719 985.96988281 252.66273438 986.50226562 252.19921875 987.05078125 C248.77850105 991.09344762 245.32894463 995.11071961 241.875 999.125 C238.38184894 1003.18628745 234.93551604 1007.27518587 231.5625 1011.4375 C227.41939009 1016.54307465 223.1176955 1021.49800053 218.79711914 1026.45288086 C215.63534162 1030.08737851 212.53149794 1033.75520843 209.5 1037.5 C205.42242873 1042.53348541 201.19494085 1047.42333309 196.94189453 1052.30810547 C192.01987908 1057.96419371 187.16927867 1063.67768348 182.33837891 1069.41162109 C180.08232573 1072.08908953 177.82293394 1074.76372957 175.5625 1077.4375 C175.11261719 1077.96988281 174.66273438 1078.50226563 174.19921875 1079.05078125 C170.77850105 1083.09344762 167.32894463 1087.11071961 163.875 1091.125 C160.38184894 1095.18628745 156.93551604 1099.27518587 153.5625 1103.4375 C149.41939009 1108.54307465 145.1176955 1113.49800053 140.79711914 1118.45288086 C137.63534162 1122.08737851 134.53149794 1125.75520843 131.5 1129.5 C127.42242873 1134.53348541 123.19494085 1139.42333309 118.94189453 1144.30810547 C114.01987908 1149.96419371 109.16927867 1155.67768348 104.33837891 1161.41162109 C102.08232573 1164.08908953 99.82293394 1166.76372957 97.5625 1169.4375 C97.11261719 1169.96988281 96.66273438 1170.50226563 96.19921875 1171.05078125 C92.77850105 1175.09344762 89.32894463 1179.11071961 85.875 1183.125 C82.38184894 1187.18628745 78.93551604 1191.27518587 75.5625 1195.4375 C71.41939009 1200.54307465 67.1176955 1205.49800053 62.79711914 1210.45288086 C59.63534162 1214.08737851 56.53149794 1217.75520843 53.5 1221.5 C49.42242873 1226.53348541 45.19494085 1231.42333309 40.94189453 1236.30810547 C36.0212235 1241.96264879 31.17218901 1247.67472086 26.34277344 1253.40722656 C24.06578569 1256.10814802 21.7825781 1258.80380307 19.5 1261.5 C16.76018685 1264.73698995 14.02104448 1267.97453536 11.28515625 1271.21484375 C6.50591674 1276.87270826 1.7055149 1282.51082743 -3.125 1288.125 C-6.61815106 1292.18628745 -10.06448396 1296.27518587 -13.4375 1300.4375 C-17.58060991 1305.54307465 -21.8823045 1310.49800053 -26.20288086 1315.45288086 C-29.36465838 1319.08737851 -32.46850206 1322.75520843 -35.5 1326.5 C-39.57757127 1331.53348541 -43.80505915 1336.42333309 -48.05810547 1341.30810547 C-52.98012092 1346.96419371 -57.83072133 1352.67768348 -62.66162109 1358.41162109 C-64.91767427 1361.08908953 -67.17706606 1363.76372957 -69.4375 1366.4375 C-69.88738281 1366.96988281 -70.33726562 1367.50226563 -70.80078125 1368.05078125 C-73.71339249 1371.49295817 -76.64495795 1374.9182236 -79.5859375 1378.33618164 C-85.72112744 1385.46697743 -91.7090312 1392.70060208 -97.62890625 1400.01171875 C-98.73118998 1401.35895442 -99.8613108 1402.68339061 -101 1404 C-101.33 1404 -101.66 1404 -102 1404 C-101.39715657 1394.33802974 -99.97049742 1384.87370595 -98.39672852 1375.33544922 C-98.12547035 1373.66982961 -97.85462721 1372.00414237 -97.58415985 1370.33839417 C-96.84399256 1365.78714015 -96.09810171 1361.2368403 -95.35128331 1356.68667364 C-94.54544143 1351.77020899 -93.7451228 1346.85284511 -92.94419861 1341.93557739 C-91.55417116 1333.4058064 -90.16095661 1324.87656111 -88.765625 1316.34765625 C-86.53533097 1302.71436148 -84.31192311 1289.07994827 -82.08984375 1275.4453125 C-81.70947449 1273.11152736 -81.32910275 1270.77774262 -80.94872856 1268.44395828 C-80.37266579 1264.90952361 -79.79660821 1261.37508809 -79.22057903 1257.84064794 C-77.84918739 1249.42627607 -76.47698075 1241.01203734 -75.10452271 1232.59783936 C-67.40155342 1185.36888041 -59.74544161 1138.132371 -52.10118985 1090.89387733 C-50.85716071 1083.20642286 -49.61269568 1075.51903905 -48.36798096 1067.83169556 C-41.31635277 1024.28039658 -34.27285315 980.727813 -27.26192856 937.16994095 C-26.50291007 932.45427818 -25.74367735 927.73864995 -24.98434746 923.02303731 C-24.25252631 918.47825841 -23.5207846 913.93346672 -22.7890625 909.38867188 C-22.6474336 908.50901992 -22.50580471 907.62936797 -22.35988402 906.72305989 C-20.70896599 896.46871523 -19.05991139 886.21407443 -17.41391748 875.95893818 C-16.41381598 869.72846599 -15.41208399 863.49825747 -14.40903288 857.26825947 C-13.72924439 853.04542352 -13.05154259 848.82226039 -12.37554491 844.59881604 C-11.8753358 841.47774486 -11.37188381 838.35719673 -10.86889648 835.23657227 C-10.6920507 834.12736923 -10.51520493 833.0181662 -10.33300018 831.87535095 C-10.08924274 830.36891525 -10.08924274 830.36891525 -9.84056091 828.83204651 C-9.63164546 827.53078748 -9.63164546 827.53078748 -9.41850948 826.20324039 C-9 824 -9 824 -8 821 C-8.99 821.33 -9.98 821.66 -11 822 C-12.75323122 822.20438277 -14.51184608 822.36385215 -16.27185535 822.49786472 C-17.92116919 822.62625354 -17.92116919 822.62625354 -19.6038025 822.75723606 C-20.81661997 822.84770598 -22.02943744 822.9381759 -23.27900696 823.03138733 C-25.20598027 823.17967685 -25.20598027 823.17967685 -27.17188233 823.33096212 C-30.74475857 823.60579985 -34.31798438 823.87583263 -37.89128435 824.14509737 C-41.74230877 824.43612288 -45.59299523 824.73155708 -49.44372559 825.02644348 C-56.99098818 825.60369586 -64.53855799 826.17683254 -72.08623973 826.74857552 C-80.87291992 827.41431488 -89.65929838 828.08399519 -98.445668 828.75381868 C-114.12328669 829.94884581 -129.80118894 831.14011183 -145.47924805 832.3293457 C-160.69627134 833.4836104 -175.91307198 834.64075673 -191.12963867 835.80102539 C-210.33405647 837.26536307 -229.53867131 838.72708916 -248.74344874 840.18670266 C-254.86922167 840.65235673 -260.99492258 841.11895106 -267.12059975 841.58586311 C-274.58726645 842.15493819 -282.05405931 842.72232459 -289.52101556 843.28758819 C-293.33139335 843.57607636 -297.141713 843.86528173 -300.95188713 844.15644836 C-305.08108768 844.4719659 -309.21054666 844.78396237 -313.34004211 845.09559631 C-315.14923007 845.23464727 -315.14923007 845.23464727 -316.99496728 845.37650734 C-318.65601598 845.50098453 -318.65601598 845.50098453 -320.35062122 845.62797642 C-321.78010726 845.73652276 -321.78010726 845.73652276 -323.23847181 845.84726197 C-326.1643528 846.00909023 -329.07024677 846.02573604 -332 846 C-329.57746203 837.09014124 -326.19446749 828.63595121 -322.76870728 820.07681274 C-321.25892036 816.30402872 -319.75886213 812.52739816 -318.25816345 808.75099182 C-317.44647879 806.70853013 -316.63434512 804.66624683 -315.8217926 802.62413025 C-310.94732251 790.36854131 -306.1308639 778.09022804 -301.3125 765.8125 C-300.38303211 763.44529018 -299.453507 761.07810282 -298.52392578 758.7109375 C-296.63615216 753.90357768 -294.74861943 749.09612341 -292.86132812 744.28857422 C-288.09619223 732.15026837 -283.32984536 720.01243824 -278.5625 707.875 C-278.09792389 706.69217438 -277.63334778 705.50934875 -277.1546936 704.29067993 C-271.32548401 689.45043232 -265.48489832 674.61477374 -259.62530518 659.78649902 C-253.87764506 645.23988788 -248.15549295 630.68329549 -242.4375 616.125 C-241.97366913 614.94407776 -241.50983826 613.76315552 -241.0319519 612.54644775 C-237.68752516 604.03113903 -234.34370009 595.51559408 -231 587 C-227.1879016 577.29150892 -223.3755566 567.58311479 -219.5625 557.875 C-219.09810516 556.69262756 -218.63371033 555.51025513 -218.15524292 554.29205322 C-212.32584911 539.45134831 -206.4850795 524.61523223 -200.62530518 509.78649902 C-192.00420479 487.96756881 -183.43761464 466.12718625 -174.86279297 444.29003906 C-169.78817296 431.36706695 -164.71084646 418.44515791 -159.63397217 405.52307129 C-158.2650783 402.03882532 -156.89620347 398.55457188 -155.52734375 395.0703125 C-155.07500366 393.91893799 -154.62266357 392.76756348 -154.15661621 391.58129883 C-151.3355847 384.40044585 -148.51523402 377.21932583 -145.69534302 370.0380249 C-128.33235968 325.82055379 -128.33235968 325.82055379 -119.62530518 303.78649902 C-113.87764506 289.23988788 -108.15549295 274.68329549 -102.4375 260.125 C-101.97366913 258.94407776 -101.50983826 257.76315552 -101.0319519 256.54644775 C-97.68752516 248.03113903 -94.34370009 239.51559408 -91 231 C-87.1879016 221.29150892 -83.3755566 211.58311479 -79.5625 201.875 C-79.09810516 200.69262756 -78.63371033 199.51025513 -78.15524292 198.29205322 C-72.32584911 183.45134831 -66.4850795 168.61523223 -60.62530518 153.78649902 C-54.87764496 139.23988763 -49.15559555 124.68325538 -43.4375 110.125 C-42.97533081 108.94839813 -42.51316162 107.77179626 -42.0369873 106.55953979 C-37.44989578 94.88130528 -32.864005 83.20260017 -28.28088093 71.52280807 C-26.07460569 65.90030773 -23.86759815 60.27809506 -21.66043091 54.65594482 C-20.73961161 52.30991475 -19.81908643 49.9637692 -18.89889526 47.61749268 C-17.60521704 44.31892091 -16.31050711 41.02075558 -15.015625 37.72265625 C-14.65588089 36.80459702 -14.29613678 35.88653778 -13.92549133 34.94065857 C-9.34096999 23.27055331 -4.65686555 11.64216387 0 0 Z " fill="#F2EE1B" transform="translate(642,80)"/>
</svg>
