<?xml version="1.0" encoding="UTF-8"?>
<!DOCTYPE svg PUBLIC "-//W3C//DTD SVG 1.1//EN" "http://www.w3.org/Graphics/SVG/1.1/DTD/svg11.dtd">
<svg xmlns="http://www.w3.org/2000/svg" version="1.1" width="1563px" height="1563px" style="shape-rendering:geometricPrecision; text-rendering:geometricPrecision; image-rendering:optimizeQuality; fill-rule:evenodd; clip-rule:evenodd" xmlns:xlink="http://www.w3.org/1999/xlink">
<g><path style="opacity:0.978" fill="#2095f3" d="M 500.5,205.5 C 542.205,205.474 582.539,212.974 621.5,228C 663.327,242.581 702.66,261.914 739.5,286C 744.873,293.388 751.873,298.388 760.5,301C 767.575,306.98 772.242,314.48 774.5,323.5C 779.295,319.566 784.128,319.566 789,323.5C 791.139,315.722 794.973,308.889 800.5,303C 804.079,300.246 808.079,298.246 812.5,297C 819.39,289.127 827.723,283.127 837.5,279C 891.225,244.527 949.559,221.194 1012.5,209C 1082.55,192.771 1131.05,217.604 1158,283.5C 1165.5,305.358 1169,327.858 1168.5,351C 1168.51,384.237 1163.68,416.737 1154,448.5C 1134.54,508.932 1106.04,564.432 1068.5,615C 1089.98,614.062 1111.48,613.229 1133,612.5C 1197.51,611.001 1259.68,622.168 1319.5,646C 1354.42,660.263 1383.58,682.096 1407,711.5C 1438.6,758.463 1438.26,805.13 1406,851.5C 1358.5,910.032 1301.34,956.199 1234.5,990C 1228.88,991.822 1223.21,993.489 1217.5,995C 1213.88,996.631 1210.88,998.965 1208.5,1002C 1200.18,1003.07 1191.85,1003.9 1183.5,1004.5C 1182.77,1007.21 1181.94,1009.88 1181,1012.5C 1178.82,1013.65 1177.32,1015.31 1176.5,1017.5C 1178.1,1020.28 1179.94,1022.95 1182,1025.5C 1196.22,1115.6 1186.89,1203.27 1154,1288.5C 1130.07,1339.34 1089.9,1361.84 1033.5,1356C 1005.37,1353.18 979.366,1344.18 955.5,1329C 911.882,1301.05 875.049,1265.88 845,1223.5C 835.273,1209.44 825.94,1195.1 817,1180.5C 804.912,1157.99 793.078,1135.32 781.5,1112.5C 756.427,1169.02 723.594,1220.36 683,1266.5C 655.405,1296.69 623.571,1321.19 587.5,1340C 550.589,1357.7 512.256,1361.36 472.5,1351C 449.085,1340.92 430.585,1325.09 417,1303.5C 403.421,1275.43 393.421,1246.1 387,1215.5C 373.327,1153.55 370.993,1091.22 380,1028.5C 382.305,1024.7 384.805,1021.03 387.5,1017.5C 384.559,1014.73 382.225,1011.57 380.5,1008C 381.337,1006.99 381.67,1005.82 381.5,1004.5C 372.831,1003.83 364.165,1003 355.5,1002C 352.5,999.667 349.5,997.333 346.5,995C 335.444,993.636 325.777,989.303 317.5,982C 312.481,981.327 307.814,979.66 303.5,977C 248.39,943.912 199.89,902.745 158,853.5C 122.841,802.44 124.174,752.44 162,703.5C 177.514,685.97 195.347,671.47 215.5,660C 267.798,632.682 323.465,617.349 382.5,614C 411.167,613.333 439.833,613.333 468.5,614C 477.91,614.435 487.243,615.102 496.5,616C 449.757,555 417.59,486.834 400,411.5C 395.416,380.952 394.416,350.286 397,319.5C 400.535,286.941 413.368,258.775 435.5,235C 453.787,217.52 475.454,207.686 500.5,205.5 Z M 499.5,211.5 C 505.842,211.334 512.175,211.5 518.5,212C 485.679,222.154 463.179,243.32 451,275.5C 439.922,307.653 436.255,340.653 440,374.5C 447.17,433.343 465.17,488.676 494,540.5C 509.921,569.07 527.421,596.57 546.5,623C 532.74,621.985 519.074,619.985 505.5,617C 470.179,570.915 442.346,520.415 422,465.5C 408.928,429.473 401.761,392.306 400.5,354C 400.371,322.685 407.537,293.185 422,265.5C 439.274,235.037 465.107,217.037 499.5,211.5 Z M 1046.5,212.5 C 1096.68,212.205 1131.18,235.538 1150,282.5C 1161.27,313.939 1164.94,346.273 1161,379.5C 1158.77,408.418 1152.44,436.418 1142,463.5C 1122.18,517.319 1095.02,566.819 1060.5,612C 1057.5,614.503 1054.16,616.503 1050.5,618C 1040,621.192 1029.34,622.359 1018.5,621.5C 1050.32,577.889 1076.48,530.889 1097,480.5C 1119.7,426.276 1128.03,369.942 1122,311.5C 1118.44,282.561 1106.94,257.394 1087.5,236C 1075.66,225.004 1062,217.171 1046.5,212.5 Z M 533.5,216.5 C 541.174,216.334 548.841,216.5 556.5,217C 531.388,224.453 512.554,239.62 500,262.5C 487.403,287.648 481.903,314.314 483.5,342.5C 482.941,378.034 488.108,412.701 499,446.5C 511.796,485.089 528.129,522.089 548,557.5C 561.501,579.838 575.501,601.838 590,623.5C 591.5,626.5 593,629.5 594.5,632.5C 582.232,631.84 570.232,629.34 558.5,625C 512.546,567.609 478.713,503.442 457,432.5C 446.622,394.47 443.289,355.803 447,316.5C 451.74,279.488 468.907,249.988 498.5,228C 509.347,221.22 521.014,217.387 533.5,216.5 Z M 1007.5,217.5 C 1054.48,213.939 1087.32,233.939 1106,277.5C 1117.2,308.259 1120.87,339.925 1117,372.5C 1111.43,418.875 1098.76,463.208 1079,505.5C 1060.85,543.587 1039.52,579.587 1015,613.5C 1010.58,620.589 1004.41,625.423 996.5,628C 986.532,630.527 976.532,632.527 966.5,634C 995.841,593.849 1021.01,551.015 1042,505.5C 1059.74,466.882 1071.74,426.548 1078,384.5C 1079.52,362.522 1079.85,340.522 1079,318.5C 1077.02,284.711 1063.85,256.211 1039.5,233C 1029.76,225.964 1019.09,220.797 1007.5,217.5 Z M 563.5,223.5 C 567.819,224.035 572.152,224.535 576.5,225C 578.618,225.26 580.284,226.26 581.5,228C 565.868,235.63 553.368,246.797 544,261.5C 533.811,281.256 528.144,302.256 527,324.5C 525.007,362.892 529.341,400.559 540,437.5C 561.423,509.015 594.423,574.348 639,633.5C 642.267,638.7 644.934,644.034 647,649.5C 634.892,646.131 623.059,641.964 611.5,637C 605.074,630.632 599.241,623.798 594,616.5C 546.974,551.434 513.64,479.768 494,401.5C 489.029,369.915 488.363,338.248 492,306.5C 496.471,279.717 508.638,257.217 528.5,239C 538.848,230.616 550.514,225.449 563.5,223.5 Z M 986.5,224.5 C 1010.6,222.805 1030.44,231.138 1046,249.5C 1065.76,277.01 1075.26,307.844 1074.5,342C 1074.33,374.556 1069.49,406.39 1060,437.5C 1036.67,510.03 1001.5,575.863 954.5,635C 941.257,642.191 927.257,647.191 912.5,650C 957.033,591.791 991.866,527.957 1017,458.5C 1032.12,413.351 1038.45,367.018 1036,319.5C 1034.54,294.117 1026.54,271.117 1012,250.5C 1003.83,241.669 994.334,234.669 983.5,229.5C 983.167,229 982.833,228.5 982.5,228C 983.686,226.588 985.019,225.421 986.5,224.5 Z M 588.5,233.5 C 595.668,234.253 602.002,236.919 607.5,241.5C 598.719,250.442 590.886,260.109 584,270.5C 575.783,288.244 571.116,306.911 570,326.5C 568.164,362.812 572.164,398.479 582,433.5C 605.194,514.22 641.861,587.887 692,654.5C 694.22,657.54 695.72,660.873 696.5,664.5C 685.008,662.947 674.341,659.114 664.5,653C 648.178,635.179 633.678,616.012 621,595.5C 588.513,545.073 563.513,491.073 546,433.5C 536.144,399.508 531.81,364.841 533,329.5C 533.666,303.171 541.333,279.171 556,257.5C 564.458,246.198 575.291,238.198 588.5,233.5 Z M 969.5,233.5 C 989.284,237.778 1004.12,248.778 1014,266.5C 1025.88,290.575 1031.38,316.075 1030.5,343C 1028.67,396.488 1016.84,447.654 995,496.5C 970.972,549.595 941.639,599.262 907,645.5C 896.146,656.511 882.979,663.178 867.5,665.5C 866.068,665.267 865.568,664.6 866,663.5C 895.267,622.661 921.267,579.661 944,534.5C 969.08,484.258 985.08,431.258 992,375.5C 994.752,349.336 993.752,323.336 989,297.5C 985.689,282.878 979.689,269.545 971,257.5C 965.652,252.319 960.485,246.985 955.5,241.5C 959.901,238.302 964.567,235.635 969.5,233.5 Z M 614.5,248.5 C 616.927,248.523 619.26,249.023 621.5,250C 626.818,253.323 631.484,257.323 635.5,262C 625.166,274.303 618.666,288.469 616,304.5C 610.547,342.382 611.88,380.048 620,417.5C 638.66,494.799 669.827,566.466 713.5,632.5C 710.334,640.836 706.501,648.836 702,656.5C 656.806,596.131 621.473,530.131 596,458.5C 583.018,421.942 576.518,384.275 576.5,345.5C 575.428,323.5 578.595,302.167 586,281.5C 592.148,267.525 601.648,256.525 614.5,248.5 Z M 944.5,248.5 C 948.331,248.249 951.664,249.416 954.5,252C 974.824,270.158 985.324,292.991 986,320.5C 989.597,373.256 981.597,424.256 962,473.5C 938.292,532.596 908.625,588.263 873,640.5C 869.627,645.25 865.794,649.583 861.5,653.5C 854.726,647.286 851.892,639.619 853,630.5C 886.661,576.506 913.328,519.173 933,458.5C 950.271,406.859 954.604,354.192 946,300.5C 943.324,285.646 936.824,272.813 926.5,262C 932.032,256.749 938.032,252.249 944.5,248.5 Z M 640.5,267.5 C 641.873,267.343 643.207,267.51 644.5,268C 645.878,269.713 647.545,271.047 649.5,272C 655.179,276.346 660.179,281.346 664.5,287C 658.923,301.623 656.09,316.79 656,332.5C 652.815,373.316 657.148,413.316 669,452.5C 683.156,503.644 702.989,552.477 728.5,599C 725.245,607.769 721.411,616.269 717,624.5C 685.236,575.303 659.569,522.97 640,467.5C 624.873,423.741 617.873,378.741 619,332.5C 619.573,308.497 626.74,286.83 640.5,267.5 Z M 920.5,267.5 C 923.056,268.543 925.223,270.21 927,272.5C 935.727,287.015 941.06,302.681 943,319.5C 947.071,367.008 941.404,413.341 926,458.5C 906.615,517.266 880.281,572.599 847,624.5C 843.155,618.143 839.822,611.477 837,604.5C 835.85,602.246 835.516,599.913 836,597.5C 869.658,535.195 892.991,469.195 906,399.5C 909.56,366.751 908.894,334.084 904,301.5C 902.399,296.864 900.899,292.198 899.5,287.5C 905.229,279.436 912.229,272.77 920.5,267.5 Z M 669.5,293.5 C 670.239,293.369 670.906,293.536 671.5,294C 677.551,300.596 683.718,307.096 690,313.5C 692.442,316.048 694.108,319.048 695,322.5C 692.985,355.742 694.985,388.742 701,421.5C 711.437,468.979 725.604,515.312 743.5,560.5C 739.963,570.612 736.129,580.612 732,590.5C 704.048,539.645 683.381,485.979 670,429.5C 660.796,390.836 658.796,351.836 664,312.5C 665.133,305.937 666.967,299.604 669.5,293.5 Z M 718.5,296.5 C 716.915,295.998 716.415,294.998 717,293.5C 718.039,294.244 718.539,295.244 718.5,296.5 Z M 726.5,293.5 C 727.906,293.973 728.573,294.973 728.5,296.5C 727.094,296.027 726.427,295.027 726.5,293.5 Z M 891.5,293.5 C 892.376,293.369 893.043,293.702 893.5,294.5C 898.436,306.678 901.269,319.345 902,332.5C 904.122,376.521 898.456,419.521 885,461.5C 871.482,506.391 853.482,549.391 831,590.5C 827.597,581.626 824.597,572.626 822,563.5C 821.333,560.5 821.333,557.5 822,554.5C 837.514,515.624 850.014,475.791 859.5,435C 867.691,398.572 870.524,361.738 868,324.5C 868.521,321.126 869.854,318.126 872,315.5C 878.708,308.295 885.208,300.962 891.5,293.5 Z M 836.5,294.5 C 836.573,296.027 835.906,297.027 834.5,297.5C 834.427,295.973 835.094,294.973 836.5,294.5 Z M 718.5,296.5 C 719.906,296.973 720.573,297.973 720.5,299.5C 719.094,299.027 718.427,298.027 718.5,296.5 Z M 728.5,296.5 C 729.906,296.973 730.573,297.973 730.5,299.5C 729.094,299.027 728.427,298.027 728.5,296.5 Z M 824.5,296.5 C 824.573,298.027 823.906,299.027 822.5,299.5C 822.427,297.973 823.094,296.973 824.5,296.5 Z M 739.5,297.5 C 741.587,298.585 742.92,300.251 743.5,302.5C 741.413,301.415 740.08,299.749 739.5,297.5 Z M 834.5,297.5 C 832.913,301.683 830.579,305.35 827.5,308.5C 829.087,304.317 831.421,300.65 834.5,297.5 Z M 730.5,299.5 C 731.906,299.973 732.573,300.973 732.5,302.5C 731.094,302.027 730.427,301.027 730.5,299.5 Z M 822.5,299.5 C 822.539,300.756 822.039,301.756 821,302.5C 820.415,301.002 820.915,300.002 822.5,299.5 Z M 841.5,301.5 C 840.502,305.505 838.502,308.839 835.5,311.5C 837,307.827 839,304.494 841.5,301.5 Z M 733.5,304.5 C 734.906,304.973 735.573,305.973 735.5,307.5C 734.094,307.027 733.427,306.027 733.5,304.5 Z M 757.5,308.5 C 758.794,309.29 759.961,310.29 761,311.5C 765.977,320.764 769.144,330.598 770.5,341C 770.477,343.925 769.977,346.759 769,349.5C 765.877,335.632 762.044,321.966 757.5,308.5 Z M 804.5,308.5 C 805.598,309.601 805.765,310.934 805,312.5C 801.131,324.44 797.465,336.44 794,348.5C 792.787,334.021 796.287,320.688 804.5,308.5 Z M 726.5,309.5 C 727.906,309.973 728.573,310.973 728.5,312.5C 727.094,312.027 726.427,311.027 726.5,309.5 Z M 763.5,356.5 C 759.128,344.227 754.628,331.893 750,319.5C 749.163,317.179 748.83,314.845 749,312.5C 756.329,326.32 761.162,340.987 763.5,356.5 Z M 799.5,358.5 C 801.829,342.347 806.662,327.014 814,312.5C 814.667,313.833 814.667,315.167 814,316.5C 809.033,330.571 804.2,344.571 799.5,358.5 Z M 781.5,327.5 C 782.29,328.609 782.79,329.942 783,331.5C 783.626,344.52 783.293,357.52 782,370.5C 779.25,356.133 779.083,341.799 781.5,327.5 Z M 817.5,329.5 C 817.076,334.192 815.576,338.525 813,342.5C 813.604,337.853 815.104,333.52 817.5,329.5 Z M 859.5,332.5 C 860.75,332.577 861.583,333.244 862,334.5C 863.699,364.811 861.366,394.811 855,424.5C 845.877,466.699 833.044,507.699 816.5,547.5C 811.57,534.043 807.237,520.377 803.5,506.5C 816.749,464.754 825.583,422.088 830,378.5C 831.449,373.601 833.449,368.935 836,364.5C 843.279,353.394 851.112,342.727 859.5,332.5 Z M 702.5,333.5 C 707.436,336.601 711.603,340.601 715,345.5C 721.933,354.77 727.599,364.77 732,375.5C 737.547,418.903 746.547,461.57 759,503.5C 759.667,505.833 759.667,508.167 759,510.5C 755,523.167 751,535.833 747,548.5C 723.227,492.741 707.893,434.741 701,374.5C 700.333,361.833 700.333,349.167 701,336.5C 701.513,335.473 702.013,334.473 702.5,333.5 Z M 747.5,333.5 C 748.848,334.527 749.348,335.86 749,337.5C 747.812,336.437 747.312,335.103 747.5,333.5 Z M 741.5,391.5 C 746.537,395.883 750.37,401.217 753,407.5C 763.296,425.716 769.129,445.216 770.5,466C 769.695,472.847 768.529,479.681 767,486.5C 766.484,489.251 765.317,491.584 763.5,493.5C 758.433,479.904 754.6,465.904 752,451.5C 747.531,431.658 744.031,411.658 741.5,391.5 Z M 819.5,392.5 C 820.725,393.152 821.392,394.319 821.5,396C 817.38,428.972 810.047,461.139 799.5,492.5C 798.416,491.335 797.583,490.002 797,488.5C 790.864,466.099 792.864,444.432 803,423.5C 807.479,412.537 812.979,402.203 819.5,392.5 Z M 731.5,609.5 C 732.622,611.288 732.789,613.288 732,615.5C 730.767,623.433 728.767,631.1 726,638.5C 723.55,635.622 722.884,632.288 724,628.5C 726.513,622.145 729.013,615.812 731.5,609.5 Z M 831.5,611.5 C 835.651,618.267 838.651,625.6 840.5,633.5C 840.297,635.208 839.464,636.541 838,637.5C 836.473,635.779 835.473,633.779 835,631.5C 833.508,624.882 832.341,618.215 831.5,611.5 Z M 387.5,619.5 C 422.867,619.055 458.201,619.889 493.5,622C 500.452,624.94 506.286,629.44 511,635.5C 516.045,642.423 521.212,649.256 526.5,656C 475.16,652.377 423.826,652.71 372.5,657C 328.182,662.661 285.849,674.995 245.5,694C 214.814,709.085 189.648,730.585 170,758.5C 156.619,782.105 151.619,807.439 155,834.5C 135.964,803.553 133.964,771.553 149,738.5C 166.449,706.717 190.949,681.884 222.5,664C 274.513,637.748 329.513,622.915 387.5,619.5 Z M 1094.5,619.5 C 1135.93,618.626 1177.26,620.126 1218.5,624C 1256.46,629.765 1292.79,640.765 1327.5,657C 1361.58,673.632 1389.08,697.799 1410,729.5C 1429.19,764.924 1428.86,800.257 1409,835.5C 1407.76,829.075 1407.59,822.575 1408.5,816C 1408.41,787.716 1399.24,762.883 1381,741.5C 1353.13,711.635 1319.63,690.469 1280.5,678C 1202.13,653.101 1122.13,645.934 1040.5,656.5C 1039.5,656.167 1038.5,655.833 1037.5,655.5C 1044.92,644.574 1052.92,634.074 1061.5,624C 1072.6,622.16 1083.6,620.66 1094.5,619.5 Z M 763.5,620.5 C 764.222,620.918 764.722,621.584 765,622.5C 765.89,629.914 765.557,637.247 764,644.5C 762.916,641.12 762.416,637.62 762.5,634C 762.697,629.481 763.03,624.981 763.5,620.5 Z M 740.5,622.5 C 741.426,631.058 739.926,639.391 736,647.5C 734.529,649.872 733.363,649.872 732.5,647.5C 734.379,638.865 737.046,630.531 740.5,622.5 Z M 798.5,622.5 C 800.128,626.901 801.128,631.568 801.5,636.5C 801.561,639.481 800.728,642.148 799,644.5C 798.5,637.174 798.334,629.841 798.5,622.5 Z M 821.5,622.5 C 826.573,629.832 829.906,637.999 831.5,647C 831.37,648.059 830.87,648.892 830,649.5C 824.064,641.522 821.23,632.522 821.5,622.5 Z M 515.5,625.5 C 527.679,626.692 539.679,628.859 551.5,632C 554.63,634.128 557.463,636.628 560,639.5C 565.833,647.333 571.667,655.167 577.5,663C 564.321,662.47 551.321,660.637 538.5,657.5C 529.978,647.479 521.644,637.312 513.5,627C 514.416,626.722 515.082,626.222 515.5,625.5 Z M 1042.5,625.5 C 1045.52,625.335 1048.52,625.502 1051.5,626C 1043.12,635.375 1035.12,645.042 1027.5,655C 1014.39,660.74 1000.72,663.24 986.5,662.5C 992.333,654.833 998.167,647.167 1004,639.5C 1009.13,633.516 1015.63,630.016 1023.5,629C 1029.97,627.813 1036.31,626.646 1042.5,625.5 Z M 775.5,626.5 C 776.376,626.369 777.043,626.702 777.5,627.5C 773.395,636.694 772.728,636.36 775.5,626.5 Z M 785.5,627.5 C 786.793,626.355 787.959,626.689 789,628.5C 789.667,630.167 789.667,631.833 789,633.5C 787.541,631.568 786.375,629.568 785.5,627.5 Z M 997.5,633.5 C 999.646,633.696 999.812,634.696 998,636.5C 990.179,646.32 981.679,655.487 972.5,664C 968.096,666.533 963.429,668.533 958.5,670C 949.933,672.045 941.433,674.212 933,676.5C 939.454,665.867 947.287,656.033 956.5,647C 960.545,644.427 964.878,642.427 969.5,641C 979.033,638.786 988.366,636.286 997.5,633.5 Z M 566.5,634.5 C 579.8,636.926 592.8,640.426 605.5,645C 614.354,655.02 623.021,665.186 631.5,675.5C 617.269,673.83 603.269,670.33 589.5,665C 580.478,655.759 572.812,645.592 566.5,634.5 Z M 749.5,636.5 C 751.018,638.681 752.018,641.181 752.5,644C 751.72,652.238 749.554,660.072 746,667.5C 744.285,656.884 745.452,646.551 749.5,636.5 Z M 812.5,636.5 C 815.038,639.245 816.538,642.578 817,646.5C 818.547,653.145 818.713,659.811 817.5,666.5C 815.683,664.584 814.516,662.251 814,659.5C 811.657,651.911 811.157,644.244 812.5,636.5 Z M 717.5,641.5 C 719.411,641.574 720.578,642.574 721,644.5C 721.692,653.429 719.025,661.095 713,667.5C 710.386,666.555 708.886,664.722 708.5,662C 710.835,654.834 713.835,648 717.5,641.5 Z M 843.5,642.5 C 845.017,642.511 846.184,643.177 847,644.5C 849.333,649.167 851.667,653.833 854,658.5C 854.714,663.419 853.381,667.753 850,671.5C 846.248,663.913 843.081,656.079 840.5,648C 841.223,645.982 842.223,644.148 843.5,642.5 Z M 776.5,643.5 C 777.655,650.655 777.822,657.988 777,665.5C 771.265,658.229 771.098,650.896 776.5,643.5 Z M 786.5,644.5 C 788.997,648.16 790.997,652.16 792.5,656.5C 791.299,658.909 789.633,660.909 787.5,662.5C 786.504,656.537 786.171,650.537 786.5,644.5 Z M 619.5,647.5 C 629.436,650.756 639.436,653.923 649.5,657C 656.302,659.817 662.135,663.984 667,669.5C 672.358,676.024 677.525,682.69 682.5,689.5C 670.169,687.909 658.169,684.409 646.5,679C 639.333,673.167 632.833,666.667 627,659.5C 624.667,656.5 622.333,653.5 620,650.5C 619.517,649.552 619.351,648.552 619.5,647.5 Z M 939.5,648.5 C 941.199,648.34 942.866,648.506 944.5,649C 936.302,659.044 927.635,668.71 918.5,678C 906.68,683.83 894.347,687.83 881.5,690C 888.033,679.794 895.7,670.461 904.5,662C 906.996,660.92 909.33,659.586 911.5,658C 920.979,654.897 930.312,651.73 939.5,648.5 Z M 563.5,695.5 C 509.857,691.698 456.19,691.531 402.5,695C 354.228,700.093 308.228,713.093 264.5,734C 239.174,746.652 217.34,763.819 199,785.5C 185.934,802.025 178.767,820.858 177.5,842C 178.622,850.178 179.456,858.344 180,866.5C 170.639,852.778 164.306,837.778 161,821.5C 159.985,794.211 168.318,770.211 186,749.5C 205.433,727.068 228.6,709.568 255.5,697C 309.544,672.857 366.211,660.19 425.5,659C 460.913,658.092 496.247,659.425 531.5,663C 542.369,673.702 553.035,684.535 563.5,695.5 Z M 1083.5,658.5 C 1154.27,654.823 1222.93,664.99 1289.5,689C 1324.59,702.44 1354.42,723.273 1379,751.5C 1408.12,788.411 1409.79,826.411 1384,865.5C 1383.35,866.696 1382.85,866.696 1382.5,865.5C 1388.68,836.916 1383.18,810.916 1366,787.5C 1342.5,759.982 1314,739.149 1280.5,725C 1221.64,701.495 1160.48,690.328 1097,691.5C 1064.35,691.813 1031.85,693.313 999.5,696C 1009.52,684.976 1019.86,674.309 1030.5,664C 1036.08,662.485 1041.74,661.485 1047.5,661C 1059.66,660.254 1071.66,659.421 1083.5,658.5 Z M 548.5,665.5 C 561.288,667.798 573.954,670.631 586.5,674C 597.113,683.279 607.113,693.279 616.5,704C 601.58,702.416 586.913,699.416 572.5,695C 565.667,687.5 558.833,680 552,672.5C 550.295,670.423 549.128,668.09 548.5,665.5 Z M 674.5,665.5 C 680.835,667.75 687.002,670.417 693,673.5C 692.446,677.274 690.78,680.608 688,683.5C 684.333,679.167 680.667,674.833 677,670.5C 675.906,668.922 675.072,667.255 674.5,665.5 Z M 887.5,665.5 C 888.675,665.281 889.675,665.614 890.5,666.5C 886.145,673.028 880.811,678.195 874.5,682C 872.278,679.382 870.778,676.549 870,673.5C 875.792,670.524 881.625,667.857 887.5,665.5 Z M 1012.5,665.5 C 1013.87,665.343 1015.21,665.51 1016.5,666C 1009.25,676.589 1000.58,685.922 990.5,694C 987.618,695.608 984.618,696.941 981.5,698C 969.881,700.659 958.215,702.659 946.5,704C 955.623,694.387 964.956,685.054 974.5,676C 977.382,674.392 980.382,673.059 983.5,672C 993.33,669.956 1003,667.789 1012.5,665.5 Z M 840.5,667.5 C 841.905,669.64 842.738,671.974 843,674.5C 841.097,672.559 840.264,670.226 840.5,667.5 Z M 722.5,669.5 C 722.688,671.103 722.188,672.437 721,673.5C 720.652,671.86 721.152,670.527 722.5,669.5 Z M 760.5,669.5 C 761.139,670.097 761.472,670.93 761.5,672C 761,674.5 760.5,677 760,679.5C 759.457,676.132 759.624,672.799 760.5,669.5 Z M 801.5,669.5 C 804.198,673.363 805.031,677.696 804,682.5C 802.843,678.218 802.01,673.884 801.5,669.5 Z M 825.5,671.5 C 828.037,674.694 828.87,678.361 828,682.5C 826.096,679.077 825.263,675.41 825.5,671.5 Z M 736.5,672.5 C 737.88,672.962 738.547,673.962 738.5,675.5C 737.974,678.272 737.141,680.938 736,683.5C 735.421,679.797 735.588,676.131 736.5,672.5 Z M 861.5,675.5 C 864.803,679.835 867.47,684.668 869.5,690C 867.702,692.966 865.369,695.466 862.5,697.5C 859.071,692.98 856.405,687.98 854.5,682.5C 856.2,679.493 858.534,677.16 861.5,675.5 Z M 961.5,675.5 C 957.84,681.463 953.674,687.13 949,692.5C 941.913,701.585 932.746,707.418 921.5,710C 913.128,711.941 904.795,713.608 896.5,715C 904.13,705.036 912.796,696.036 922.5,688C 935.012,682.329 948.012,678.163 961.5,675.5 Z M 667.5,714.5 C 653.958,713.467 640.958,710.3 628.5,705C 617.833,697 608.5,687.667 600.5,677C 609.228,678.012 617.895,679.679 626.5,682C 636.261,684.71 644.594,689.71 651.5,697C 657.409,702.404 662.742,708.237 667.5,714.5 Z M 701.5,677.5 C 705.57,676.508 707.57,678.008 707.5,682C 706.557,687.715 704.39,692.882 701,697.5C 693.473,693.531 692.473,688.197 698,681.5C 699.376,680.295 700.542,678.962 701.5,677.5 Z M 766.5,677.5 C 767.812,682.015 767.812,686.682 766.5,691.5C 765.431,686.844 765.431,682.178 766.5,677.5 Z M 795.5,678.5 C 797.839,682.876 798.506,687.542 797.5,692.5C 796.749,691.624 796.249,690.624 796,689.5C 795.501,685.848 795.335,682.182 795.5,678.5 Z M 750.5,687.5 C 753.293,687.74 753.793,688.74 752,690.5C 750.961,689.756 750.461,688.756 750.5,687.5 Z M 780.5,687.5 C 781.117,687.611 781.617,687.944 782,688.5C 783.418,693.428 783.751,698.428 783,703.5C 782.311,704.357 781.478,705.023 780.5,705.5C 779.498,699.514 779.498,693.514 780.5,687.5 Z M 810.5,687.5 C 811.833,687.5 813.167,687.5 814.5,687.5C 814.5,688.5 814.5,689.5 814.5,690.5C 813.167,690.5 811.833,690.5 810.5,690.5C 810.5,689.5 810.5,688.5 810.5,687.5 Z M 828.5,689.5 C 831.389,689.999 832.056,691.499 830.5,694C 829.552,694.483 828.552,694.649 827.5,694.5C 827.629,692.784 827.962,691.117 828.5,689.5 Z M 842.5,689.5 C 846.409,693.317 848.742,697.984 849.5,703.5C 845.957,703.128 843.79,701.128 843,697.5C 842.503,694.854 842.336,692.187 842.5,689.5 Z M 719.5,690.5 C 721.377,695.242 720.377,699.409 716.5,703C 715.552,703.483 714.552,703.649 713.5,703.5C 714.692,698.783 716.692,694.45 719.5,690.5 Z M 732.5,690.5 C 735.244,691.072 736.077,692.738 735,695.5C 733.117,694.347 732.284,692.681 732.5,690.5 Z M 903.5,690.5 C 905.199,690.34 906.866,690.506 908.5,691C 902.833,696.667 897.167,702.333 891.5,708C 887.937,708.123 885.77,706.29 885,702.5C 884.202,700.741 884.369,699.074 885.5,697.5C 891.599,695.139 897.599,692.806 903.5,690.5 Z M 656.5,692.5 C 664.381,692.281 671.881,694.281 679,698.5C 677.951,702.618 676.284,706.618 674,710.5C 667.936,704.605 662.103,698.605 656.5,692.5 Z M 435.5,697.5 C 480.645,696.234 525.645,698.068 570.5,703C 581.799,712.631 592.799,722.631 603.5,733C 571.942,730.121 540.275,728.954 508.5,729.5C 443.651,726.086 380.651,735.253 319.5,757C 282.958,769.508 251.458,789.674 225,817.5C 209.609,836.668 201.942,858.668 202,883.5C 201.282,884.451 200.449,884.617 199.5,884C 193.471,878.446 189.638,871.613 188,863.5C 181.55,837.964 186.216,814.631 202,793.5C 218.561,772.266 238.727,755.433 262.5,743C 317,715.459 374.667,700.293 435.5,697.5 Z M 747.5,697.5 C 749.017,697.511 750.184,698.177 751,699.5C 752.29,703.73 752.79,708.064 752.5,712.5C 749.439,712.556 747.272,711.222 746,708.5C 745.013,704.525 745.513,700.859 747.5,697.5 Z M 812.5,697.5 C 816.396,697.731 818.396,699.898 818.5,704C 818.308,708.524 816.141,711.691 812,713.5C 809.905,708.063 810.072,702.729 812.5,697.5 Z M 1057.5,697.5 C 1087.53,697.277 1117.53,698.111 1147.5,700C 1204.97,704.532 1258.97,720.532 1309.5,748C 1332.21,761.373 1351.04,778.873 1366,800.5C 1381.22,826.045 1382.22,852.045 1369,878.5C 1367.64,881.363 1365.47,883.363 1362.5,884.5C 1362.17,884.167 1361.83,883.833 1361.5,883.5C 1361.57,854.189 1351.24,829.356 1330.5,809C 1303.44,784.621 1272.44,766.621 1237.5,755C 1178.26,734.139 1117.26,725.639 1054.5,729.5C 1025.61,729.077 996.777,730.077 968,732.5C 966.5,732.167 965,731.833 963.5,731.5C 972.47,720.69 982.804,711.524 994.5,704C 1000.06,702.462 1005.73,701.462 1011.5,701C 1026.97,699.499 1042.3,698.333 1057.5,697.5 Z M 834.5,699.5 C 835.117,699.611 835.617,699.944 836,700.5C 836.992,708.635 836.159,709.135 833.5,702C 833.743,701.098 834.077,700.265 834.5,699.5 Z M 727.5,700.5 C 729.874,702.401 730.041,704.735 728,707.5C 727.503,705.19 727.337,702.857 727.5,700.5 Z M 873.5,700.5 C 875.371,700.859 876.871,701.859 878,703.5C 879.896,707.189 881.396,711.022 882.5,715C 881.03,718.603 878.363,721.103 874.5,722.5C 869.382,717.976 866.882,712.309 867,705.5C 868.965,703.45 871.132,701.783 873.5,700.5 Z M 687.5,701.5 C 692.713,700.762 695.713,702.928 696.5,708C 695.406,713.692 692.906,718.526 689,722.5C 685.193,721.202 682.359,718.868 680.5,715.5C 682.317,710.533 684.65,705.866 687.5,701.5 Z M 976.5,704.5 C 977.873,704.343 979.207,704.51 980.5,705C 970.049,715.791 958.715,725.458 946.5,734C 934.378,737.741 922.044,740.075 909.5,741C 917.863,732.303 926.53,723.969 935.5,716C 939.271,713.781 943.271,712.115 947.5,711C 957.283,708.746 966.95,706.58 976.5,704.5 Z M 585.5,706.5 C 598.538,707.472 611.538,709.972 624.5,714C 634.795,722.294 644.462,731.294 653.5,741C 640.916,740.217 628.582,737.884 616.5,734C 605.998,724.997 595.665,715.83 585.5,706.5 Z M 765.5,707.5 C 770.293,708.93 770.626,711.096 766.5,714C 764.285,715.814 761.952,716.314 759.5,715.5C 761.046,712.368 763.046,709.702 765.5,707.5 Z M 794.5,708.5 C 798.896,709.216 802.229,711.55 804.5,715.5C 801.115,715.688 797.782,714.854 794.5,713C 793.272,711.51 793.272,710.01 794.5,708.5 Z M 712.5,709.5 C 716.073,709.977 716.906,711.644 715,714.5C 713.117,713.347 712.284,711.681 712.5,709.5 Z M 847.5,709.5 C 849.847,711.03 850.014,713.03 848,715.5C 847.505,713.527 847.338,711.527 847.5,709.5 Z M 704.5,715.5 C 708.79,716.515 711.123,719.348 711.5,724C 711.415,725.107 711.081,726.107 710.5,727C 706.3,727.701 702.633,726.701 699.5,724C 701.045,721.073 702.712,718.24 704.5,715.5 Z M 855.5,715.5 C 860.703,716.845 863.37,720.012 863.5,725C 852.057,729.641 849.39,726.474 855.5,715.5 Z M 640.5,716.5 C 648.31,718.202 655.976,720.369 663.5,723C 664.881,727.409 663.381,730.576 659,732.5C 653.405,729.282 648.238,725.448 643.5,721C 641.859,719.871 640.859,718.371 640.5,716.5 Z M 730.5,716.5 C 731.649,716.791 732.316,717.624 732.5,719C 732.079,721.185 731.579,723.351 731,725.5C 730.29,726.973 729.124,727.64 727.5,727.5C 727.336,724.813 727.503,722.146 728,719.5C 728.698,718.309 729.531,717.309 730.5,716.5 Z M 830.5,716.5 C 834.658,717.438 836.992,720.104 837.5,724.5C 837.132,725.91 836.299,726.91 835,727.5C 831.022,724.937 829.522,721.27 830.5,716.5 Z M 913.5,717.5 C 915.857,717.337 918.19,717.503 920.5,718C 915.958,724.21 910.458,729.376 904,733.5C 900.675,730.879 899.342,727.546 900,723.5C 904.153,720.518 908.653,718.518 913.5,717.5 Z M 768.5,719.5 C 769.712,721.264 769.379,722.93 767.5,724.5C 766.348,722.603 766.681,720.936 768.5,719.5 Z M 818.5,721.5 C 821.076,721.722 821.91,723.055 821,725.5C 819.519,724.529 818.685,723.196 818.5,721.5 Z M 780.5,724.5 C 783.966,725.109 784.966,726.942 783.5,730C 778.541,730.232 777.541,728.399 780.5,724.5 Z M 676.5,725.5 C 681.325,725.488 683.491,727.821 683,732.5C 681.287,736.873 678.787,740.707 675.5,744C 669.333,745.167 666.833,742.667 668,736.5C 669.428,731.596 672.261,727.93 676.5,725.5 Z M 886.5,725.5 C 888.679,725.84 890.512,726.84 892,728.5C 895.111,732.371 896.778,736.705 897,741.5C 895.093,745.01 892.26,746.176 888.5,745C 883.391,740.937 880.558,735.771 880,729.5C 882.013,727.752 884.18,726.418 886.5,725.5 Z M 746.5,731.5 C 748.796,733.218 749.129,735.385 747.5,738C 745.62,741.146 743.954,741.146 742.5,738C 743.25,735.429 744.583,733.262 746.5,731.5 Z M 815.5,731.5 C 818.196,733.199 820.196,735.533 821.5,738.5C 819.994,739.747 818.494,739.747 817,738.5C 815.798,736.323 815.298,733.989 815.5,731.5 Z M 864.5,731.5 C 865.552,731.351 866.552,731.517 867.5,732C 866.167,734.667 864.167,736.667 861.5,738C 858.333,738.833 857.167,737.667 858,734.5C 860.166,733.269 862.333,732.269 864.5,731.5 Z M 697.5,732.5 C 700.85,732.506 703.85,733.506 706.5,735.5C 702.88,736.53 699.88,735.53 697.5,732.5 Z M 1050.5,733.5 C 1116.07,731.986 1179.74,742.152 1241.5,764C 1269.3,774.227 1294.64,788.56 1317.5,807C 1335.33,822.499 1347.16,841.666 1353,864.5C 1353.67,870.833 1353.67,877.167 1353,883.5C 1352.64,885.608 1351.97,887.608 1351,889.5C 1346.22,894.284 1340.89,898.284 1335,901.5C 1334.05,901.095 1333.39,900.428 1333,899.5C 1333.31,888.395 1330.64,878.061 1325,868.5C 1307.46,843.962 1285.3,824.795 1258.5,811C 1220.55,791.795 1180.55,778.795 1138.5,772C 1090.16,763.822 1041.49,760.822 992.5,763C 969.605,764.449 946.938,765.949 924.5,767.5C 924.738,763.862 926.404,761.029 929.5,759C 936.985,752.759 944.652,746.759 952.5,741C 985.186,736.696 1017.85,734.196 1050.5,733.5 Z M 467.5,734.5 C 510.921,733.762 554.255,735.262 597.5,739C 604.538,739.791 611.204,741.791 617.5,745C 625.527,751.694 632.86,759.027 639.5,767C 581.21,762.921 522.877,762.588 464.5,766C 415.461,771.406 368.127,783.406 322.5,802C 295.02,814.158 270.853,830.991 250,852.5C 237.403,866.367 230.903,882.701 230.5,901.5C 222.202,899.059 215.702,894.059 211,886.5C 207.937,871.477 209.937,857.144 217,843.5C 228.318,824.179 243.151,808.012 261.5,795C 286.506,778.333 313.506,765.667 342.5,757C 383.387,744.253 425.054,736.753 467.5,734.5 Z M 847.5,736.5 C 849.88,738.237 851.547,740.57 852.5,743.5C 850.994,744.747 849.494,744.747 848,743.5C 847.503,741.19 847.337,738.857 847.5,736.5 Z M 690.5,737.5 C 701.716,744.036 701.05,748.369 688.5,750.5C 687,750.547 686,749.881 685.5,748.5C 686.907,744.688 688.574,741.022 690.5,737.5 Z M 870.5,737.5 C 872.017,737.511 873.184,738.177 874,739.5C 876.035,742.561 877.201,745.895 877.5,749.5C 864.71,751.083 862.377,747.083 870.5,737.5 Z M 713.5,738.5 C 716.113,739.392 716.779,741.059 715.5,743.5C 714.311,744.429 712.978,744.762 711.5,744.5C 711.253,742.142 711.919,740.142 713.5,738.5 Z M 779.5,738.5 C 783.677,737.842 785.177,739.508 784,743.5C 783.612,744.428 782.945,745.095 782,745.5C 779.257,743.768 778.424,741.434 779.5,738.5 Z M 933.5,743.5 C 934.525,743.897 934.692,744.563 934,745.5C 929.779,749.689 925.279,753.522 920.5,757C 915.909,755.994 914.242,753.161 915.5,748.5C 921.512,746.378 927.512,744.711 933.5,743.5 Z M 628.5,744.5 C 634.257,744.682 639.924,745.515 645.5,747C 647.291,747.415 648.624,748.415 649.5,750C 648.389,753.099 646.556,755.599 644,757.5C 638.361,753.692 633.195,749.358 628.5,744.5 Z M 827.5,744.5 C 831.029,748.551 834.029,753.051 836.5,758C 829.506,756.459 826.506,751.959 827.5,744.5 Z M 773.5,750.5 C 771.727,749.686 771.227,748.352 772,746.5C 772.791,747.745 773.291,749.078 773.5,750.5 Z M 733.5,747.5 C 736.174,752.531 734.507,756.198 728.5,758.5C 728.167,758.167 727.833,757.833 727.5,757.5C 729.129,753.887 731.129,750.554 733.5,747.5 Z M 658.5,750.5 C 660.527,750.338 662.527,750.505 664.5,751C 666.18,751.347 667.18,752.347 667.5,754C 665.106,759.966 661.606,765.132 657,769.5C 651.769,765.211 651.102,760.211 655,754.5C 656.376,753.295 657.542,751.962 658.5,750.5 Z M 895.5,750.5 C 905.48,750.648 910.646,755.648 911,765.5C 908.592,767.624 906.092,767.457 903.5,765C 900.067,761.958 897.234,758.458 895,754.5C 894.421,753.072 894.588,751.738 895.5,750.5 Z M 684.5,755.5 C 686.977,755.051 688.977,755.717 690.5,757.5C 688.163,758.512 685.83,758.345 683.5,757C 684.056,756.617 684.389,756.117 684.5,755.5 Z M 874.5,755.5 C 881.567,755.848 881.901,756.848 875.5,758.5C 872.207,757.947 871.874,756.947 874.5,755.5 Z M 749.5,759.5 C 754.096,759.487 755.763,761.654 754.5,766C 746.271,768.575 744.605,766.408 749.5,759.5 Z M 704.5,760.5 C 706.635,760.147 707.968,760.98 708.5,763C 707.013,765.821 704.846,767.987 702,769.5C 701.13,768.892 700.63,768.059 700.5,767C 701.25,764.429 702.583,762.262 704.5,760.5 Z M 812.5,760.5 C 817.289,761.38 817.622,763.214 813.5,766C 811.866,766.494 810.199,766.66 808.5,766.5C 808.657,763.682 809.991,761.682 812.5,760.5 Z M 852.5,761.5 C 858.44,759.819 861.773,762.152 862.5,768.5C 861.448,768.649 860.448,768.483 859.5,768C 857.297,765.628 854.963,763.461 852.5,761.5 Z M 883.5,761.5 C 884.794,762.29 885.961,763.29 887,764.5C 888.946,767.377 890.279,770.377 891,773.5C 888.512,771.257 885.846,769.257 883,767.5C 880.947,765.287 881.113,763.287 883.5,761.5 Z M 672.5,772.5 C 673.703,767.749 676.536,764.415 681,762.5C 683.2,762.893 683.7,763.893 682.5,765.5C 679.149,767.859 675.815,770.192 672.5,772.5 Z M 772.5,765.5 C 774.922,766.085 776.589,767.585 777.5,770C 774.814,769.823 773.148,768.323 772.5,765.5 Z M 789.5,765.5 C 790.239,765.369 790.906,765.536 791.5,766C 790.378,768.124 788.878,769.957 787,771.5C 786.458,768.918 787.292,766.918 789.5,765.5 Z M 498.5,768.5 C 534.514,768.71 570.514,769.543 606.5,771C 615.291,771.375 623.957,772.542 632.5,774.5C 629.338,782.315 625.005,789.481 619.5,796C 571.003,795.152 522.67,797.485 474.5,803C 421.851,809.327 371.851,824.327 324.5,848C 303.745,858.809 285.912,873.309 271,891.5C 265.312,898.207 261.812,905.874 260.5,914.5C 252.088,913.21 244.588,909.877 238,904.5C 235.949,896.67 236.615,889.004 240,881.5C 247.638,866.756 257.805,853.923 270.5,843C 289.035,827.89 309.369,815.557 331.5,806C 385.307,784.796 440.974,772.296 498.5,768.5 Z M 723.5,768.5 C 725.346,768.222 726.68,768.889 727.5,770.5C 723.283,777.296 721.95,776.63 723.5,768.5 Z M 837.5,768.5 C 840.575,770.317 841.741,772.984 841,776.5C 837.317,774.811 836.15,772.144 837.5,768.5 Z M 985.5,768.5 C 1025.56,768.336 1065.56,769.836 1105.5,773C 1159.91,779.804 1211.57,795.471 1260.5,820C 1284.3,833.147 1303.8,850.98 1319,873.5C 1325.07,883.024 1327.4,893.357 1326,904.5C 1323.59,906.956 1320.76,908.789 1317.5,910C 1313.24,911.308 1309.07,912.808 1305,914.5C 1295.6,891.765 1280.43,873.932 1259.5,861C 1229.06,841.782 1196.39,827.448 1161.5,818C 1119.71,805.744 1077.04,799.078 1033.5,798C 1003.5,797.25 973.502,796.583 943.5,796C 939.089,789.923 935.089,783.59 931.5,777C 931.645,776.228 931.978,775.561 932.5,775C 934.715,773.956 937.048,773.29 939.5,773C 955.05,772.158 970.383,770.658 985.5,768.5 Z M 688.5,770.5 C 691.443,773.931 690.443,775.931 685.5,776.5C 685.615,774.053 686.615,772.053 688.5,770.5 Z M 872.5,770.5 C 876.019,771.309 877.352,773.309 876.5,776.5C 874.167,775.168 872.834,773.168 872.5,770.5 Z M 644.5,775.5 C 647.073,775.148 649.406,775.648 651.5,777C 647.68,783.967 642.68,789.967 636.5,795C 634.231,796.558 631.898,796.724 629.5,795.5C 633.073,787.653 638.073,780.986 644.5,775.5 Z M 913.5,775.5 C 918.102,775.384 921.935,777.051 925,780.5C 928.643,785.455 931.476,790.788 933.5,796.5C 924.443,793.954 917.943,788.287 914,779.5C 913.51,778.207 913.343,776.873 913.5,775.5 Z M 796.5,778.5 C 797.5,778.5 798.5,778.5 799.5,778.5C 799.5,779.833 799.5,781.167 799.5,782.5C 796.68,782.752 794.014,782.252 791.5,781C 793.491,780.626 795.158,779.793 796.5,778.5 Z M 764.5,779.5 C 772.915,779.381 773.415,781.048 766,784.5C 763.676,783.225 763.176,781.558 764.5,779.5 Z M 679.5,782.5 C 686.167,783.5 686.167,784.5 679.5,785.5C 679.5,784.5 679.5,783.5 679.5,782.5 Z M 880.5,782.5 C 887.167,783.5 887.167,784.5 880.5,785.5C 880.5,784.5 880.5,783.5 880.5,782.5 Z M 664.5,787.5 C 664.783,786.711 665.283,786.044 666,785.5C 666.528,786.816 666.028,787.483 664.5,787.5 Z M 699.5,785.5 C 701.92,785.292 704.253,785.626 706.5,786.5C 707.583,787.365 707.749,788.365 707,789.5C 702.806,793.187 697.973,795.02 692.5,795C 692.043,794.586 691.709,794.086 691.5,793.5C 693.34,789.931 696.007,787.264 699.5,785.5 Z M 859.5,785.5 C 866.274,785.613 870.274,788.947 871.5,795.5C 865.617,794.727 860.284,792.56 855.5,789C 856.731,787.595 858.064,786.429 859.5,785.5 Z M 889.5,789.5 C 893.768,791.315 894.101,791.982 890.5,791.5C 889.702,791.043 889.369,790.376 889.5,789.5 Z M 667.5,795.5 C 668.031,793.376 669.365,791.876 671.5,791C 672.5,790.333 673.5,790.333 674.5,791C 672.283,792.723 669.95,794.223 667.5,795.5 Z M 773.5,790.5 C 774.5,790.5 775.5,790.5 776.5,790.5C 776.405,793.272 775.071,795.272 772.5,796.5C 771.23,794.243 771.564,792.243 773.5,790.5 Z M 785.5,792.5 C 788.174,791.397 790.174,792.397 791.5,795.5C 788.846,796.174 786.846,795.174 785.5,792.5 Z M 714.5,792.5 C 715.643,795.976 715.81,799.642 715,803.5C 711.489,807.787 710.156,807.121 711,801.5C 712.18,798.479 713.346,795.479 714.5,792.5 Z M 847.5,793.5 C 848.458,793.953 849.292,794.619 850,795.5C 851.706,799.079 853.539,802.579 855.5,806C 851.413,806.504 848.913,804.67 848,800.5C 847.503,798.19 847.337,795.857 847.5,793.5 Z M 722.5,795.5 C 725.69,796.667 726.023,798.334 723.5,800.5C 722.548,798.955 722.215,797.288 722.5,795.5 Z M 839.5,795.5 C 841.972,796.749 842.139,798.415 840,800.5C 838.212,798.977 838.045,797.31 839.5,795.5 Z M 685.5,797.5 C 689.61,799.746 689.277,801.079 684.5,801.5C 684.433,800.041 684.766,798.708 685.5,797.5 Z M 748.5,797.5 C 753.891,797.351 754.558,798.851 750.5,802C 748.956,803.187 747.289,803.52 745.5,803C 744.549,802.282 744.383,801.449 745,800.5C 746.145,799.364 747.312,798.364 748.5,797.5 Z M 811.5,797.5 C 815.577,797.017 817.91,798.684 818.5,802.5C 814.763,802.759 812.43,801.093 811.5,797.5 Z M 876.5,797.5 C 879.14,798.794 879.14,800.127 876.5,801.5C 875.374,800.192 875.374,798.858 876.5,797.5 Z M 535.5,802.5 C 561.835,802.333 588.169,802.5 614.5,803C 609.167,810.333 603.833,817.667 598.5,825C 544.731,827.443 491.731,835.11 439.5,848C 408.289,856.181 378.289,867.514 349.5,882C 328.57,893.247 310.237,907.913 294.5,926C 285.037,924.88 276.037,922.046 267.5,917.5C 266.488,915.163 266.655,912.83 268,910.5C 282.701,886.465 302.534,867.965 327.5,855C 364.798,835.567 404.131,821.9 445.5,814C 475.368,807.849 505.368,804.016 535.5,802.5 Z M 611.5,820.5 C 615.215,814.251 619.548,808.417 624.5,803C 626.579,802.192 628.579,802.359 630.5,803.5C 625.046,810.295 618.713,815.962 611.5,820.5 Z M 758.5,802.5 C 761.041,803.623 761.041,804.956 758.5,806.5C 757.374,805.192 757.374,803.858 758.5,802.5 Z M 803.5,802.5 C 806.045,803.438 806.545,804.771 805,806.5C 803.812,805.437 803.312,804.103 803.5,802.5 Z M 952.5,821.5 C 944.727,816.228 937.727,810.061 931.5,803C 934.93,802.541 937.93,803.541 940.5,806C 945.122,810.776 949.122,815.942 952.5,821.5 Z M 951.5,802.5 C 990.562,801.798 1029.56,802.965 1068.5,806C 1130.08,812.194 1188.08,829.861 1242.5,859C 1262.16,870.653 1278.66,885.82 1292,904.5C 1293.85,908.198 1295.68,911.864 1297.5,915.5C 1295.17,918.335 1292.17,920.169 1288.5,921C 1282,923.626 1275.33,925.293 1268.5,926C 1249.16,903.335 1225.83,886.001 1198.5,874C 1145.02,851.381 1089.36,837.047 1031.5,831C 1009.16,828.777 986.824,826.611 964.5,824.5C 959.71,817.753 955.043,810.92 950.5,804C 951.056,803.617 951.389,803.117 951.5,802.5 Z M 734.5,803.5 C 738.864,805.428 739.364,808.095 736,811.5C 734.5,810.667 733.333,809.5 732.5,808C 733.267,806.53 733.933,805.03 734.5,803.5 Z M 642.5,805.5 C 643.239,805.369 643.906,805.536 644.5,806C 639.286,814.215 632.452,820.715 624,825.5C 623.333,824.833 623.333,824.167 624,823.5C 626.706,821.129 629.039,818.463 631,815.5C 635.026,812.302 638.859,808.968 642.5,805.5 Z M 825.5,805.5 C 828.084,805.569 830.084,806.735 831.5,809C 827.503,812.233 825.503,811.066 825.5,805.5 Z M 919.5,805.5 C 927.08,810.078 933.414,816.078 938.5,823.5C 938.167,823.833 937.833,824.167 937.5,824.5C 929.402,820.071 923.402,813.737 919.5,805.5 Z M 663.5,807.5 C 664.239,807.369 664.906,807.536 665.5,808C 659.714,814.792 653.048,820.459 645.5,825C 644.056,825.781 642.723,825.614 641.5,824.5C 647.78,817.373 655.114,811.706 663.5,807.5 Z M 898.5,807.5 C 907.74,811.237 915.407,817.07 921.5,825C 921,825.5 920.5,826 920,826.5C 912.421,821.591 905.421,815.925 899,809.5C 898.536,808.906 898.369,808.239 898.5,807.5 Z M 693.5,814.5 C 694.562,812.243 696.228,811.077 698.5,811C 697.211,812.802 695.544,813.969 693.5,814.5 Z M 780.5,810.5 C 783.525,811.033 784.858,812.867 784.5,816C 784.825,820.157 783.158,821.324 779.5,819.5C 777.992,816.231 778.325,813.231 780.5,810.5 Z M 865.5,811.5 C 868.614,811.555 870.948,812.888 872.5,815.5C 869.386,815.445 867.052,814.112 865.5,811.5 Z M 679.5,814.5 C 678.207,816.296 676.707,817.963 675,819.5C 675.177,816.814 676.677,815.148 679.5,814.5 Z M 703.5,826.5 C 706.705,821.742 711.038,818.742 716.5,817.5C 716.528,819.582 715.861,821.416 714.5,823C 710.979,824.674 707.313,825.84 703.5,826.5 Z M 860.5,826.5 C 855.703,826.293 851.537,824.626 848,821.5C 847.51,820.207 847.343,818.873 847.5,817.5C 849.308,817.491 850.975,817.991 852.5,819C 855.062,821.733 857.729,824.233 860.5,826.5 Z M 739.5,819.5 C 740.788,821.035 740.788,822.701 739.5,824.5C 737.07,822.963 737.07,821.296 739.5,819.5 Z M 823.5,819.5 C 825.213,820.635 825.88,822.302 825.5,824.5C 824.5,824.5 823.5,824.5 822.5,824.5C 822.366,822.708 822.699,821.042 823.5,819.5 Z M 664.5,820.5 C 665.043,820.56 665.376,820.893 665.5,821.5C 664.469,822.7 663.635,824.034 663,825.5C 661.951,826.517 660.784,826.684 659.5,826C 661.373,824.296 663.04,822.463 664.5,820.5 Z M 899.5,822.5 C 902.519,822.972 903.519,824.472 902.5,827C 899.273,826.944 898.273,825.444 899.5,822.5 Z M 692.5,823.5 C 690.811,826.842 688.145,828.342 684.5,828C 686.817,825.843 689.484,824.343 692.5,823.5 Z M 872.5,824.5 C 874.757,824.962 876.757,825.962 878.5,827.5C 875.884,828.195 873.884,827.195 872.5,824.5 Z M 726.5,827.5 C 731.599,826.942 734.766,828.942 736,833.5C 732.633,833.707 729.133,833.207 725.5,832C 724.419,830.289 724.752,828.789 726.5,827.5 Z M 833.5,827.5 C 840.228,830.871 839.562,832.871 831.5,833.5C 829.611,833.564 827.944,833.064 826.5,832C 828.76,830.212 831.093,828.712 833.5,827.5 Z M 588.5,831.5 C 589.756,831.461 590.756,831.961 591.5,833C 584.673,842.321 577.339,851.154 569.5,859.5C 511.558,866.152 455.558,880.319 401.5,902C 381.899,910.797 363.233,921.13 345.5,933C 339.693,935.318 333.693,935.984 327.5,935C 318.893,933.433 310.559,931.1 302.5,928C 330.222,899.988 362.889,879.654 400.5,867C 438.554,853.737 477.554,844.403 517.5,839C 541.264,835.978 564.931,833.478 588.5,831.5 Z M 637.5,844.5 C 642.315,838.86 648.148,834.526 655,831.5C 655.5,831.833 656,832.167 656.5,832.5C 650.991,837.757 644.658,841.757 637.5,844.5 Z M 798.5,831.5 C 801.285,832.09 803.619,833.424 805.5,835.5C 801.115,838.137 798.782,836.804 798.5,831.5 Z M 924.5,843.5 C 918.048,840.437 912.048,836.603 906.5,832C 909.419,831.448 912.086,832.115 914.5,834C 918.334,836.668 921.667,839.835 924.5,843.5 Z M 970.5,832.5 C 1035.68,834.477 1099.34,845.977 1161.5,867C 1190.56,877.19 1217.22,891.524 1241.5,910C 1247.87,916.031 1253.87,922.364 1259.5,929C 1247.1,933.013 1234.44,935.346 1221.5,936C 1197.77,918.965 1172.1,905.298 1144.5,895C 1095.1,877.65 1044.43,865.65 992.5,859C 984.925,850.269 977.592,841.435 970.5,832.5 Z M 760.5,832.5 C 765.453,832.322 766.619,834.322 764,838.5C 761.635,837.711 759.468,836.544 757.5,835C 758.942,834.623 759.942,833.79 760.5,832.5 Z M 670.5,834.5 C 673.187,834.336 675.854,834.503 678.5,835C 672.593,839.538 666.426,843.705 660,847.5C 662.099,842.214 665.599,837.881 670.5,834.5 Z M 903.5,846.5 C 896.865,843.706 890.865,839.873 885.5,835C 894.219,834.529 900.219,838.362 903.5,846.5 Z M 780.5,835.5 C 783.727,835.78 786.393,837.113 788.5,839.5C 783.869,840.662 779.202,840.828 774.5,840C 776.389,838.236 778.389,836.736 780.5,835.5 Z M 696.5,836.5 C 697.239,836.369 697.906,836.536 698.5,837C 697.695,838.972 696.361,840.472 694.5,841.5C 694.167,841.167 693.833,840.833 693.5,840.5C 694.172,838.84 695.172,837.507 696.5,836.5 Z M 862.5,837.5 C 866.057,836.101 868.723,837.268 870.5,841C 867.579,840.62 864.912,839.453 862.5,837.5 Z M 711.5,838.5 C 713.379,838.393 713.712,838.893 712.5,840C 705.03,843.27 704.697,842.77 711.5,838.5 Z M 849.5,839.5 C 852.411,837.992 854.744,838.825 856.5,842C 854.037,841.78 851.704,840.946 849.5,839.5 Z M 735.5,841.5 C 737.948,841.085 739.281,842.085 739.5,844.5C 736.476,851.447 731.476,853.614 724.5,851C 727.769,847.221 731.436,844.054 735.5,841.5 Z M 749.5,841.5 C 754.421,841.135 754.755,842.135 750.5,844.5C 749.614,843.675 749.281,842.675 749.5,841.5 Z M 811.5,841.5 C 814.076,841.722 814.91,843.055 814,845.5C 812.519,844.529 811.685,843.196 811.5,841.5 Z M 826.5,841.5 C 831.427,843.467 835.427,846.634 838.5,851C 833.859,852.968 829.692,852.135 826,848.5C 825.297,846.071 825.463,843.738 826.5,841.5 Z M 678.5,844.5 C 679.5,844.5 680.5,844.5 681.5,844.5C 681.731,847.785 680.397,850.285 677.5,852C 672.518,854.913 667.185,855.913 661.5,855C 667.231,851.475 672.897,847.975 678.5,844.5 Z M 879.5,845.5 C 886.285,846.543 892.618,849.377 898.5,854C 898,854.5 897.5,855 897,855.5C 889.726,854.484 883.892,851.15 879.5,845.5 Z M 913.5,848.5 C 915.878,849.692 917.878,851.359 919.5,853.5C 918.998,854.521 918.332,854.688 917.5,854C 915.536,852.549 914.203,850.716 913.5,848.5 Z M 704.5,849.5 C 705.552,849.351 706.552,849.517 707.5,850C 703.629,853.111 699.295,854.778 694.5,855C 697.767,852.87 701.1,851.037 704.5,849.5 Z M 857.5,850.5 C 861.471,851.045 865.138,852.379 868.5,854.5C 865.491,855.023 862.491,854.523 859.5,853C 858.619,852.292 857.953,851.458 857.5,850.5 Z M 647.5,851.5 C 646.738,853.262 645.404,854.262 643.5,854.5C 644.262,852.738 645.596,851.738 647.5,851.5 Z M 717.5,851.5 C 718.867,853.093 718.534,854.426 716.5,855.5C 716.167,855.167 715.833,854.833 715.5,854.5C 716.193,853.482 716.859,852.482 717.5,851.5 Z M 760.5,851.5 C 762.344,852.204 762.844,853.537 762,855.5C 758.731,860.563 755.231,860.73 751.5,856C 754.239,853.819 757.239,852.319 760.5,851.5 Z M 801.5,851.5 C 804.63,853.023 807.963,853.689 811.5,853.5C 808.1,861.385 804.433,861.385 800.5,853.5C 800.863,852.817 801.196,852.15 801.5,851.5 Z M 781.5,856.5 C 787.797,858.08 787.963,860.08 782,862.5C 779.964,862.046 778.13,861.213 776.5,860C 778.233,858.811 779.9,857.644 781.5,856.5 Z M 651.5,861.5 C 657.324,861.347 657.657,862.013 652.5,863.5C 650.279,863.561 649.946,862.895 651.5,861.5 Z M 682.5,863.5 C 683.314,861.727 684.648,861.227 686.5,862C 685.255,862.791 683.922,863.291 682.5,863.5 Z M 877.5,862.5 C 878.849,861.203 880.182,861.37 881.5,863C 880.072,863.579 878.738,863.412 877.5,862.5 Z M 909.5,862.5 C 911.093,861.133 912.426,861.466 913.5,863.5C 913.333,863.833 913.167,864.167 913,864.5C 911.887,863.695 910.721,863.028 909.5,862.5 Z M 728.5,863.5 C 730.28,864.99 730.946,866.99 730.5,869.5C 729.5,869.5 728.5,869.5 727.5,869.5C 727.325,867.379 727.659,865.379 728.5,863.5 Z M 741.5,863.5 C 743.8,863.522 744.967,864.522 745,866.5C 742.8,867.99 740.966,867.657 739.5,865.5C 740.243,864.818 740.909,864.151 741.5,863.5 Z M 819.5,863.5 C 825.928,865.382 825.928,866.549 819.5,867C 818.833,866.667 818.167,866.333 817.5,866C 818.381,865.292 819.047,864.458 819.5,863.5 Z M 890.5,864.5 C 890.56,863.957 890.893,863.624 891.5,863.5C 897.502,866.499 903.168,869.999 908.5,874C 901.222,873.195 895.222,870.028 890.5,864.5 Z M 657.5,873.5 C 660.586,870.777 663.92,868.277 667.5,866C 673.678,863.891 674.011,864.891 668.5,869C 665.039,871.066 661.373,872.566 657.5,873.5 Z M 833.5,864.5 C 835.727,865.401 836.727,867.067 836.5,869.5C 832.716,869.475 831.716,867.808 833.5,864.5 Z M 558.5,866.5 C 560.355,866.272 561.188,866.939 561,868.5C 552.167,880 542,890.167 530.5,899C 504.513,905.58 478.846,913.247 453.5,922C 436.602,928.95 419.602,935.617 402.5,942C 399.905,942.226 397.405,942.726 395,943.5C 382.176,942.36 369.343,940.86 356.5,939C 355.328,938.581 354.328,937.915 353.5,937C 378.923,919.733 406.256,906.067 435.5,896C 475.967,883.411 516.967,873.578 558.5,866.5 Z M 999.5,867.5 C 1055.13,874.076 1109.13,887.91 1161.5,909C 1178.88,917.073 1195.21,926.74 1210.5,938C 1193.95,940.99 1177.28,942.657 1160.5,943C 1120.51,924.892 1079.18,910.558 1036.5,900C 1032.67,898.254 1029.01,896.254 1025.5,894C 1017.33,884.662 1008.66,875.828 999.5,867.5 Z M 862.5,867.5 C 870.925,869.031 878.925,871.865 886.5,876C 888.213,877.378 889.547,879.045 890.5,881C 886.302,881.05 882.302,880.05 878.5,878C 873.833,875.667 869.167,873.333 864.5,871C 863.177,870.184 862.511,869.017 862.5,867.5 Z M 695.5,868.5 C 697.527,868.338 699.527,868.505 701.5,869C 692.327,875.771 682.327,879.938 671.5,881.5C 672.648,879.851 673.981,878.351 675.5,877C 681.92,873.282 688.586,870.449 695.5,868.5 Z M 717.5,868.5 C 721.327,868.44 721.994,869.607 719.5,872C 712.539,873.288 711.872,872.122 717.5,868.5 Z M 769.5,868.5 C 770.496,868.414 771.329,868.748 772,869.5C 772.598,873.057 773.431,876.557 774.5,880C 774.095,880.945 773.428,881.612 772.5,882C 769.5,882.667 766.5,882.667 763.5,882C 762.329,876.169 764.329,871.669 769.5,868.5 Z M 779.5,868.5 C 781.144,868.286 782.644,868.62 784,869.5C 784.598,873.053 783.931,876.386 782,879.5C 780.347,876.074 779.513,872.407 779.5,868.5 Z M 791.5,869.5 C 798.64,870.44 801.64,874.274 800.5,881C 796.258,883.202 792.258,882.869 788.5,880C 789.872,876.595 790.872,873.095 791.5,869.5 Z M 842.5,869.5 C 844.842,869.504 846.842,870.337 848.5,872C 846.833,872.667 845.167,872.667 843.5,872C 842.748,871.329 842.414,870.496 842.5,869.5 Z M 754.5,871.5 C 756.874,873.401 757.041,875.735 755,878.5C 754.503,876.19 754.337,873.857 754.5,871.5 Z M 807.5,871.5 C 808.222,871.918 808.722,872.584 809,873.5C 809.667,876.167 809.667,878.833 809,881.5C 807.684,878.312 807.184,874.978 807.5,871.5 Z M 816.5,873.5 C 830.324,878.474 830.324,880.307 816.5,879C 815.248,877.172 815.248,875.339 816.5,873.5 Z M 741.5,875.5 C 743.527,875.338 745.527,875.505 747.5,876C 748.815,877.395 748.481,878.395 746.5,879C 742.833,879.667 739.167,879.667 735.5,879C 737.727,878.059 739.727,876.892 741.5,875.5 Z M 691.5,885.5 C 692.289,885.783 692.956,886.283 693.5,887C 684.818,893.396 675.151,896.229 664.5,895.5C 672.941,890.48 681.941,887.147 691.5,885.5 Z M 734.5,886.5 C 735.251,885.427 736.251,885.26 737.5,886C 736.648,887.728 735.648,887.895 734.5,886.5 Z M 827.5,886.5 C 828.251,885.427 829.251,885.26 830.5,886C 829.648,887.728 828.648,887.895 827.5,886.5 Z M 840.5,886.5 C 843.918,885.895 847.251,886.729 850.5,889C 846.808,889.657 843.475,888.824 840.5,886.5 Z M 869.5,885.5 C 879.737,887.245 889.403,890.579 898.5,895.5C 888.68,895.403 879.347,892.903 870.5,888C 869.748,887.329 869.414,886.496 869.5,885.5 Z M 716.5,886.5 C 717.873,886.343 719.207,886.51 720.5,887C 717.88,889.271 714.88,889.938 711.5,889C 713.315,888.243 714.981,887.41 716.5,886.5 Z M 785.5,887.5 C 791.869,888.675 798.203,890.175 804.5,892C 807.489,901.181 804.156,905.347 794.5,904.5C 792.109,904.441 789.775,904.107 787.5,903.5C 786.749,902.624 786.249,901.624 786,900.5C 785.501,896.179 785.334,891.846 785.5,887.5 Z M 771.5,888.5 C 773.167,888.5 774.833,888.5 776.5,888.5C 780.483,903.89 774.816,908.724 759.5,903C 758.209,899.545 758.209,896.045 759.5,892.5C 763.424,890.533 767.424,889.199 771.5,888.5 Z M 744.5,890.5 C 746.827,890.247 748.827,890.914 750.5,892.5C 749.687,896.074 748.687,899.574 747.5,903C 741.905,904.395 736.405,903.895 731,901.5C 728.962,898.621 729.129,895.954 731.5,893.5C 735.939,892.4 740.272,891.4 744.5,890.5 Z M 813.5,890.5 C 820.103,891.894 826.77,892.894 833.5,893.5C 833.98,896.685 833.314,899.519 831.5,902C 826.234,903.97 820.901,904.47 815.5,903.5C 814.888,899.55 813.888,895.717 812.5,892C 813.056,891.617 813.389,891.117 813.5,890.5 Z M 708.5,895.5 C 712.106,895.211 715.606,895.544 719,896.5C 719.269,899.28 718.102,901.446 715.5,903C 707.805,906.482 699.805,907.315 691.5,905.5C 692.373,903.587 693.373,901.753 694.5,900C 699.002,897.553 703.669,896.053 708.5,895.5 Z M 846.5,895.5 C 853.821,895.621 860.821,897.121 867.5,900C 871.962,905.578 870.462,907.744 863,906.5C 855.751,907.036 849.751,904.702 845,899.5C 844.516,897.807 845.016,896.473 846.5,895.5 Z M 682.5,900.5 C 683.833,900.5 685.167,900.5 686.5,900.5C 686.703,902.39 686.037,903.89 684.5,905C 677.21,909.127 669.543,910.127 661.5,908C 668.571,905.368 675.571,902.868 682.5,900.5 Z M 877.5,900.5 C 887.367,902.178 896.7,905.344 905.5,910C 898.126,909.661 890.793,908.661 883.5,907C 879.872,906.21 877.872,904.043 877.5,900.5 Z M 518.5,908.5 C 520.199,908.34 521.866,908.506 523.5,909C 508.689,928.245 489.023,938.912 464.5,941C 450.223,943.028 435.889,943.694 421.5,943C 453.227,929.592 485.56,918.092 518.5,908.5 Z M 1039.5,909.5 C 1039.92,908.876 1040.58,908.543 1041.5,908.5C 1075.62,917.374 1108.96,928.541 1141.5,942C 1114.84,945.239 1089.18,941.573 1064.5,931C 1054.77,925.436 1046.44,918.269 1039.5,909.5 Z M 723.5,910.5 C 725.262,913.503 726.428,916.837 727,920.5C 728.547,929.16 730.047,937.827 731.5,946.5C 709.104,1002.98 680.271,1055.65 645,1104.5C 617.538,1140.96 585.705,1173.13 549.5,1201C 520.81,1222.85 488.476,1236.01 452.5,1240.5C 434.524,1239.35 418.691,1233.01 405,1221.5C 400.93,1214.73 399.597,1207.4 401,1199.5C 418.526,1207.38 436.693,1209.21 455.5,1205C 480.808,1199.01 504.142,1188.68 525.5,1174C 572.459,1140.04 612.292,1099.21 645,1051.5C 658.752,1031 671.752,1010 684,988.5C 697.466,962.567 710.633,936.567 723.5,910.5 Z M 732.5,910.5 C 736.5,910.5 740.5,910.5 744.5,910.5C 742.785,918.483 739.619,925.816 735,932.5C 733.837,925.197 733.004,917.864 732.5,910.5 Z M 763.5,910.5 C 767.182,910.335 770.848,910.501 774.5,911C 771.773,919.738 769.273,928.571 767,937.5C 763.573,929.469 761.906,921.135 762,912.5C 762.717,911.956 763.217,911.289 763.5,910.5 Z M 789.5,910.5 C 793.182,910.335 796.848,910.501 800.5,911C 801.293,912.085 801.96,913.252 802.5,914.5C 801.291,921.336 799.458,928.003 797,934.5C 793.577,926.812 791.077,918.812 789.5,910.5 Z M 818.5,910.5 C 822.514,910.334 826.514,910.501 830.5,911C 830.957,911.414 831.291,911.914 831.5,912.5C 830.202,918.808 829.036,925.141 828,931.5C 823.758,925.015 820.592,918.015 818.5,910.5 Z M 839.5,910.5 C 840.458,910.953 841.292,911.619 842,912.5C 866.49,969.184 896.823,1022.18 933,1071.5C 957.685,1104.19 985.851,1133.69 1017.5,1160C 1040.33,1176.75 1065,1190.42 1091.5,1201C 1109.5,1206.63 1127.83,1207.97 1146.5,1205C 1151.9,1203.76 1157.07,1201.92 1162,1199.5C 1163.03,1206.82 1162.03,1213.82 1159,1220.5C 1143.2,1235.66 1124.36,1241.82 1102.5,1239C 1076.6,1235.05 1052.6,1226.05 1030.5,1212C 986.501,1182.67 949.001,1146.5 918,1103.5C 883.505,1055.87 855.171,1004.53 833,949.5C 833.633,936.235 835.8,923.235 839.5,910.5 Z M 702.5,911.5 C 706.226,911.177 709.893,911.511 713.5,912.5C 682.852,984.532 641.685,1049.53 590,1107.5C 562.306,1137.22 531.139,1162.38 496.5,1183C 477.458,1193.51 457.125,1199.68 435.5,1201.5C 425.835,1200.8 416.501,1198.63 407.5,1195C 404.865,1193.04 403.031,1190.54 402,1187.5C 401.977,1180.48 402.477,1173.48 403.5,1166.5C 426.439,1168.95 448.439,1165.45 469.5,1156C 493.701,1144.41 516.034,1130.08 536.5,1113C 581.299,1073.56 619.465,1028.72 651,978.5C 664.005,957.16 676.505,935.493 688.5,913.5C 693.317,912.833 697.983,912.166 702.5,911.5 Z M 781.5,911.5 C 786.332,924.305 790.332,937.472 793.5,951C 790.274,964.344 786.441,977.511 782,990.5C 776.854,977.422 773.021,963.922 770.5,950C 773.674,936.984 777.341,924.15 781.5,911.5 Z M 852.5,911.5 C 858.172,911.867 863.839,912.367 869.5,913C 872.458,913.229 874.958,914.396 877,916.5C 911.984,986.622 957.818,1048.79 1014.5,1103C 1038.92,1124.72 1065.92,1142.72 1095.5,1157C 1115.98,1165.89 1137.31,1169.39 1159.5,1167.5C 1161.72,1175.5 1161.88,1183.5 1160,1191.5C 1156.48,1194.84 1152.31,1197.01 1147.5,1198C 1127.82,1202.55 1108.49,1200.88 1089.5,1193C 1056.81,1178.66 1027.47,1159.33 1001.5,1135C 950.717,1087.24 909.55,1032.41 878,970.5C 868.728,952.29 859.728,933.956 851,915.5C 850.516,913.807 851.016,912.473 852.5,911.5 Z M 752.5,912.5 C 754.255,914.761 755.422,917.428 756,920.5C 758.422,930.611 760.589,940.777 762.5,951C 758.091,963.986 753.258,976.819 748,989.5C 744.019,976.596 741.186,963.43 739.5,950C 741.947,936.823 746.281,924.323 752.5,912.5 Z M 810.5,912.5 C 813.504,916.299 815.67,920.632 817,925.5C 819.908,933.556 822.408,941.723 824.5,950C 822.575,962.465 819.575,974.632 815.5,986.5C 813.183,984.758 811.683,982.424 811,979.5C 807.121,969.031 803.954,958.364 801.5,947.5C 803.724,935.604 806.724,923.937 810.5,912.5 Z M 662.5,915.5 C 667.875,915.172 673.208,915.505 678.5,916.5C 644.286,982.561 600.62,1041.73 547.5,1094C 523.786,1116.03 497.452,1134.36 468.5,1149C 455.941,1154.41 442.941,1158.41 429.5,1161C 423.5,1161.67 417.5,1161.67 411.5,1161C 409.919,1160.29 408.419,1159.46 407,1158.5C 406.714,1148.72 408.214,1139.22 411.5,1130C 432.426,1126.58 452.093,1119.58 470.5,1109C 507.112,1086.73 539.945,1059.56 569,1027.5C 598.246,994.989 624.58,960.322 648,923.5C 652.134,919.354 656.968,916.687 662.5,915.5 Z M 884.5,915.5 C 889.511,915.334 894.511,915.501 899.5,916C 903.435,916.084 907.102,917.084 910.5,919C 914.036,922.201 917.203,925.701 920,929.5C 956.201,987.628 1000.7,1038.79 1053.5,1083C 1076.92,1100.88 1102.59,1114.88 1130.5,1125C 1137.72,1126.93 1145.05,1128.09 1152.5,1128.5C 1153.47,1134.86 1154.64,1141.19 1156,1147.5C 1156.67,1151.17 1156.67,1154.83 1156,1158.5C 1155.1,1159.7 1153.93,1160.53 1152.5,1161C 1140.57,1162.01 1128.9,1160.68 1117.5,1157C 1090.77,1148.23 1066.44,1135.23 1044.5,1118C 985.644,1068.83 937.478,1011 900,944.5C 894.808,934.779 889.642,925.113 884.5,915.5 Z M 637.5,918.5 C 638.978,918.238 640.311,918.571 641.5,919.5C 604.051,980.797 557.384,1034.3 501.5,1080C 475.87,1100.09 447.203,1114.25 415.5,1122.5C 417.416,1110.56 420.916,1098.9 426,1087.5C 477.973,1060.23 523.639,1024.56 563,980.5C 578.067,963.27 592.567,945.603 606.5,927.5C 609.505,925.329 612.839,923.829 616.5,923C 623.633,921.484 630.633,919.984 637.5,918.5 Z M 923.5,920.5 C 932.225,920.674 940.891,921.507 949.5,923C 951.421,923.36 953.088,924.194 954.5,925.5C 988.533,971.035 1027.87,1011.53 1072.5,1047C 1091.09,1061.8 1111.42,1073.8 1133.5,1083C 1137.38,1085.93 1139.88,1089.76 1141,1094.5C 1144.44,1103.61 1146.94,1112.94 1148.5,1122.5C 1118.38,1114.94 1091.05,1101.77 1066.5,1083C 1033.45,1058.28 1003.95,1029.78 978,997.5C 965.333,980.833 952.667,964.167 940,947.5C 933.474,939.112 927.974,930.112 923.5,920.5 Z M 593.5,927.5 C 594.552,927.351 595.552,927.517 596.5,928C 595.711,930.365 594.544,932.532 593,934.5C 565.632,967.205 536.132,998.038 504.5,1027C 482.721,1045.4 459.054,1061.07 433.5,1074C 432.5,1074.67 431.5,1074.67 430.5,1074C 436.857,1058.26 444.357,1043.09 453,1028.5C 455.167,1026.33 457.333,1024.17 459.5,1022C 471.702,1014.06 483.368,1005.4 494.5,996C 515.102,978.067 535.102,959.4 554.5,940C 558.221,937.473 562.221,935.473 566.5,934C 575.614,931.749 584.614,929.582 593.5,927.5 Z M 968.5,927.5 C 977.66,930.233 986.993,932.4 996.5,934C 1000.78,935.473 1004.78,937.473 1008.5,940C 1035.89,966.506 1064.22,991.839 1093.5,1016C 1098.53,1019.85 1103.86,1023.18 1109.5,1026C 1118.56,1041.94 1126.06,1058.44 1132,1075.5C 1091.76,1054.27 1055.76,1027.27 1024,994.5C 1006.63,975.463 989.628,956.13 973,936.5C 970.94,933.714 969.44,930.714 968.5,927.5 Z M 538.5,939.5 C 539.465,940.721 539.298,942.054 538,943.5C 516.35,967.156 492.85,988.656 467.5,1008C 465.945,1009.29 464.279,1009.96 462.5,1010C 472.823,990.699 485.823,973.366 501.5,958C 512.296,948.602 524.629,942.436 538.5,939.5 Z M 1021.5,940.5 C 1035.08,941.43 1047.42,946.263 1058.5,955C 1076.17,970.929 1090,989.429 1100,1010.5C 1072.18,989.185 1046.01,965.852 1021.5,940.5 Z M 1265.5,955.5 C 1262.82,957.281 1259.82,957.781 1256.5,957C 1259.43,956.047 1262.43,955.547 1265.5,955.5 Z M 828.5,961.5 C 829.458,961.953 830.292,962.619 831,963.5C 858.433,1028.43 894.433,1087.76 939,1141.5C 965.571,1172.09 995.738,1198.26 1029.5,1220C 1050.76,1233.09 1073.76,1241.42 1098.5,1245C 1121.92,1248.46 1143.09,1243.29 1162,1229.5C 1161.59,1237.01 1158.92,1243.67 1154,1249.5C 1132.59,1273.15 1106.09,1281.99 1074.5,1276C 1044.75,1269.98 1017.75,1257.98 993.5,1240C 946.214,1203.39 906.714,1159.89 875,1109.5C 853.479,1074.96 834.979,1038.79 819.5,1001C 822.821,987.892 825.821,974.725 828.5,961.5 Z M 732.5,962.5 C 734.48,963.848 735.647,965.848 736,968.5C 738.883,979.246 741.383,990.08 743.5,1001C 711.319,1084.09 662.985,1156.09 598.5,1217C 573.966,1239.11 546.3,1256.45 515.5,1269C 492.576,1276.75 469.243,1278.42 445.5,1274C 426.77,1267.24 412.27,1255.4 402,1238.5C 401.689,1236.44 401.189,1234.44 400.5,1232.5C 401.167,1232.17 401.833,1231.83 402.5,1231.5C 427.675,1246.05 454.342,1249.55 482.5,1242C 509.888,1233.81 534.888,1221.14 557.5,1204C 606.635,1165.55 647.135,1119.71 679,1066.5C 698.679,1032.81 716.512,998.142 732.5,962.5 Z M 766.5,964.5 C 769.86,977.242 773.86,989.908 778.5,1002.5C 774.274,1015.52 769.274,1028.18 763.5,1040.5C 758.118,1027.99 754.118,1014.99 751.5,1001.5C 755.142,988.566 760.142,976.232 766.5,964.5 Z M 796.5,965.5 C 797.496,965.414 798.329,965.748 799,966.5C 803.505,978.683 808.005,990.85 812.5,1003C 809.474,1012.41 806.641,1021.91 804,1031.5C 803.044,1034.38 801.711,1037.04 800,1039.5C 793.802,1027.91 788.969,1015.75 785.5,1003C 788.874,990.382 792.541,977.882 796.5,965.5 Z M 329.5,967.5 C 340.896,967.091 352.23,967.591 363.5,969C 351.513,970.914 339.513,970.914 327.5,969C 328.416,968.722 329.082,968.222 329.5,967.5 Z M 1204.5,967.5 C 1215.24,967.071 1225.91,967.571 1236.5,969C 1224.15,970.918 1211.82,970.918 1199.5,969C 1201.38,968.802 1203.05,968.302 1204.5,967.5 Z M 375.5,973.5 C 377.924,973.192 380.257,973.526 382.5,974.5C 377.606,976.205 372.606,977.038 367.5,977C 370.025,975.281 372.692,974.114 375.5,973.5 Z M 1182.5,973.5 C 1187.12,973.544 1191.45,974.544 1195.5,976.5C 1194.83,976.833 1194.17,977.167 1193.5,977.5C 1189.17,976.667 1184.83,975.834 1180.5,975C 1181.42,974.722 1182.08,974.222 1182.5,973.5 Z M 1152.5,976.5 C 1152.74,975.903 1153.24,975.57 1154,975.5C 1170.79,979.711 1187.62,983.211 1204.5,986C 1198.89,987.717 1193.23,987.717 1187.5,986C 1175.69,983.297 1164.02,980.131 1152.5,976.5 Z M 403.5,976.5 C 404.873,976.343 406.207,976.51 407.5,977C 393.71,982.025 379.543,985.525 365,987.5C 363.167,987.167 361.333,986.833 359.5,986.5C 360.09,985.201 361.09,984.368 362.5,984C 376.577,982.989 390.244,980.489 403.5,976.5 Z M 335.5,985.5 C 340.39,984.223 345.39,984.39 350.5,986C 345.522,987.879 340.522,987.713 335.5,985.5 Z M 1216.5,984.5 C 1231.21,984.046 1231.71,985.046 1218,987.5C 1211.83,987.244 1211.33,986.244 1216.5,984.5 Z M 399.5,986.5 C 400.239,986.369 400.906,986.536 401.5,987C 388.011,996.581 373.344,999.247 357.5,995C 371.941,993.764 385.941,990.93 399.5,986.5 Z M 1163.5,987.5 C 1177.36,990.972 1191.36,993.472 1205.5,995C 1204.67,995.915 1203.67,996.581 1202.5,997C 1191.86,998.139 1181.53,996.806 1171.5,993C 1168.38,991.694 1165.71,989.86 1163.5,987.5 Z M 414.5,992.5 C 409.533,998.29 403.533,1002.79 396.5,1006C 394.741,1006.8 393.074,1006.63 391.5,1005.5C 398.375,999.892 406.042,995.559 414.5,992.5 Z M 1148.5,993.5 C 1148.56,992.957 1148.89,992.624 1149.5,992.5C 1156.29,995.394 1162.95,998.56 1169.5,1002C 1171.02,1003.35 1172.35,1004.85 1173.5,1006.5C 1170.49,1007.02 1167.49,1006.52 1164.5,1005C 1158.73,1001.72 1153.4,997.89 1148.5,993.5 Z M 412.5,1007.5 C 402.788,1017.88 393.454,1028.54 384.5,1039.5C 384.167,1039.17 383.833,1038.83 383.5,1038.5C 390.107,1025.23 399.773,1014.9 412.5,1007.5 Z M 425.5,1007.5 C 424.5,1009.17 423.167,1010.5 421.5,1011.5C 421.833,1009.17 423.167,1007.83 425.5,1007.5 Z M 1150.5,1007.5 C 1161.71,1013.21 1170.55,1021.55 1177,1032.5C 1178.59,1034.65 1179.26,1036.98 1179,1039.5C 1169.66,1028.66 1160.16,1018 1150.5,1007.5 Z M 407.5,1260.5 C 431.496,1279.74 458.829,1286.91 489.5,1282C 516.274,1277.63 540.941,1267.97 563.5,1253C 602.506,1226 636.339,1193.5 665,1155.5C 696.88,1111.11 724.214,1063.78 747,1013.5C 751.551,1026.49 755.718,1039.66 759.5,1053C 738.554,1101.86 712.72,1147.69 682,1190.5C 656.796,1222.7 627.962,1251.2 595.5,1276C 573.432,1292.2 549.099,1303.87 522.5,1311C 485.054,1321.26 452.22,1313.1 424,1286.5C 417.229,1278.62 411.729,1269.96 407.5,1260.5 Z M 815.5,1014.5 C 816.376,1014.37 817.043,1014.7 817.5,1015.5C 838.202,1061.27 862.702,1104.6 891,1145.5C 913.048,1176.05 938.214,1203.88 966.5,1229C 991.943,1250.73 1020.61,1267.06 1052.5,1278C 1075.01,1283.16 1097.68,1283.83 1120.5,1280C 1133.92,1276.63 1145.58,1270.13 1155.5,1260.5C 1142.14,1290.45 1118.81,1308.28 1085.5,1314C 1068.18,1316.1 1051.18,1314.43 1034.5,1309C 1003.01,1298.76 974.677,1283.09 949.5,1262C 937.396,1251.9 925.896,1241.07 915,1229.5C 904.803,1217.12 894.136,1205.12 883,1193.5C 855.636,1153.46 831.303,1111.46 810,1067.5C 807.998,1062.99 806.498,1058.33 805.5,1053.5C 808.367,1040.36 811.701,1027.36 815.5,1014.5 Z M 780.5,1016.5 C 782.81,1019.1 784.643,1022.1 786,1025.5C 789.643,1034.76 793.476,1043.93 797.5,1053C 793.475,1062.74 789.642,1072.57 786,1082.5C 782.947,1091.8 779.947,1091.8 777,1082.5C 773.331,1072.99 770.165,1063.33 767.5,1053.5C 771.636,1041.09 775.97,1028.76 780.5,1016.5 Z M 413.5,1019.5 C 411.57,1023.1 408.903,1026.1 405.5,1028.5C 407.43,1024.9 410.097,1021.9 413.5,1019.5 Z M 1154.5,1024.5 C 1156.91,1025.91 1158.58,1027.91 1159.5,1030.5C 1157.09,1029.09 1155.42,1027.09 1154.5,1024.5 Z M 405.5,1028.5 C 401.971,1033.55 397.971,1038.21 393.5,1042.5C 396.555,1037.08 400.555,1032.41 405.5,1028.5 Z M 1160.5,1031.5 C 1165.43,1034.91 1168.93,1039.24 1171,1044.5C 1167,1040.47 1163.5,1036.14 1160.5,1031.5 Z M 1164.5,1051.5 C 1171.38,1058.93 1175.88,1067.6 1178,1077.5C 1173.74,1068.65 1169.24,1059.99 1164.5,1051.5 Z M 383.5,1060.5 C 383.841,1057.48 385.007,1054.82 387,1052.5C 387.204,1055.76 386.037,1058.43 383.5,1060.5 Z M 1176.5,1053.5 C 1178.97,1055.9 1180.31,1058.9 1180.5,1062.5C 1178.38,1059.91 1177.04,1056.91 1176.5,1053.5 Z M 396.5,1054.5 C 396.245,1057.02 395.411,1059.35 394,1061.5C 392.391,1064.41 390.558,1067.07 388.5,1069.5C 390.407,1064.02 393.073,1059.02 396.5,1054.5 Z M 800.5,1065.5 C 801.376,1065.37 802.043,1065.7 802.5,1066.5C 828.064,1126.02 861.897,1180.02 904,1228.5C 931.538,1259.06 963.372,1283.9 999.5,1303C 1031.2,1319.01 1064.53,1324.01 1099.5,1318C 1114.97,1313.85 1128.81,1306.68 1141,1296.5C 1141.32,1297.91 1140.98,1299.24 1140,1300.5C 1112.35,1340.95 1074.18,1357.12 1025.5,1349C 995.357,1342.07 967.69,1329.74 942.5,1312C 897.623,1278.46 860.456,1237.96 831,1190.5C 815.632,1163.77 801.299,1136.43 788,1108.5C 787.276,1102.69 787.942,1097.02 790,1091.5C 792.831,1082.5 796.331,1073.83 800.5,1065.5 Z M 421.5,1296.5 C 427.613,1300.06 433.613,1303.9 439.5,1308C 460.143,1318.98 482.143,1322.98 505.5,1320C 541.198,1314.66 573.531,1301.33 602.5,1280C 648.154,1244.35 685.987,1201.85 716,1152.5C 732.378,1125.08 747.211,1096.75 760.5,1067.5C 761.5,1066.17 762.5,1066.17 763.5,1067.5C 767.637,1078.44 772.303,1089.1 777.5,1099.5C 753.611,1159.98 720.111,1214.31 677,1262.5C 648.392,1293.54 615.226,1318.37 577.5,1337C 543.918,1351.55 509.585,1353.88 474.5,1344C 451.612,1333.94 433.945,1318.11 421.5,1296.5 Z M 397.5,1070.5 C 396.341,1074.15 394.674,1077.48 392.5,1080.5C 393.127,1076.58 394.793,1073.25 397.5,1070.5 Z M 1167.5,1073.5 C 1169.1,1074.29 1169.77,1075.62 1169.5,1077.5C 1168.33,1076.49 1167.66,1075.15 1167.5,1073.5 Z M 1174.5,1090.5 C 1175.84,1091.31 1176.84,1092.48 1177.5,1094C 1175.52,1093.97 1174.52,1092.8 1174.5,1090.5 Z M 1171.5,1103.5 C 1173.42,1104.67 1174.25,1106.33 1174,1108.5C 1172.63,1107.09 1171.79,1105.42 1171.5,1103.5 Z"/></g>
</svg>
